<svg width="28" height="28" viewBox="0 0 28 28" fill="none" xmlns="http://www.w3.org/2000/svg">
<path d="M14.0117 25.5973C20.4486 25.5973 25.6667 20.3897 25.6667 13.9657C25.6667 7.54166 20.4486 2.33398 14.0117 2.33398C7.57482 2.33398 2.35669 7.54166 2.35669 13.9657C2.35669 20.3897 7.57482 25.5973 14.0117 25.5973Z" fill="#FFA9A9" fill-opacity="0.6" stroke="#FFA9A9" stroke-width="0.54" stroke-miterlimit="10"/>
<path d="M14.385 13.8485C13.8264 12.8221 13.5654 11.6603 13.6314 10.4936C13.6973 9.327 14.0876 8.20194 14.7583 7.24512C13.0152 7.25673 11.3451 7.94641 10.1016 9.16808C8.85816 10.3898 8.13908 12.0475 8.09668 13.7901C8.09668 13.8835 8.09668 13.9768 8.09668 14.0701C8.53701 13.8879 9.00848 13.7928 9.48501 13.7901C10.0294 13.7915 10.5659 13.9198 11.0519 14.1648C11.538 14.4099 11.9602 14.765 12.285 15.2018C12.8084 15.3173 13.2824 15.5938 13.6407 15.9925C13.9989 16.3911 14.2234 16.892 14.2826 17.4246C14.3418 17.9573 14.2327 18.4952 13.9707 18.9628C13.7087 19.4303 13.3069 19.8042 12.8217 20.0318C13.5168 20.2479 14.2404 20.358 14.9683 20.3585C16.1085 20.377 17.2359 20.1167 18.2525 19.6003C19.2692 19.0838 20.1443 18.3268 20.8017 17.3951C19.5088 17.4549 18.2246 17.1551 17.0919 16.529C15.9591 15.9029 15.0221 14.975 14.385 13.8485Z" fill="white"/>
<path d="M11.5618 16.415H11.4335C11.2803 16.0272 11.0134 15.6947 10.6677 15.4615C10.322 15.2283 9.91377 15.1052 9.49677 15.1084C9.22588 15.0875 8.9536 15.1228 8.69701 15.2121C8.44042 15.3015 8.20505 15.4429 8.00569 15.6274C7.80633 15.812 7.64726 16.0358 7.53848 16.2848C7.4297 16.5338 7.37354 16.8025 7.37354 17.0742C7.37354 17.3459 7.4297 17.6147 7.53848 17.8636C7.64726 18.1126 7.80633 18.3364 8.00569 18.521C8.20505 18.7056 8.44042 18.847 8.69701 18.9363C8.9536 19.0256 9.22588 19.0609 9.49677 19.04H11.5618C11.7446 19.0573 11.9289 19.0362 12.103 18.9781C12.2772 18.92 12.4372 18.8261 12.573 18.7026C12.7088 18.579 12.8172 18.4285 12.8915 18.2606C12.9657 18.0927 13.004 17.9111 13.004 17.7275C13.004 17.544 12.9657 17.3624 12.8915 17.1945C12.8172 17.0266 12.7088 16.8761 12.573 16.7525C12.4372 16.629 12.2772 16.5351 12.103 16.477C11.9289 16.4189 11.7446 16.3978 11.5618 16.415Z" fill="white"/>
<path d="M13.9882 25.6549C20.4251 25.6549 25.6432 20.4473 25.6432 14.0233C25.6432 7.59928 20.4251 2.3916 13.9882 2.3916C7.55137 2.3916 2.33325 7.59928 2.33325 14.0233C2.33325 20.4473 7.55137 25.6549 13.9882 25.6549Z" stroke="#FFA9A9" stroke-width="2.5" stroke-miterlimit="10"/>
<rect x="17.0625" y="17.0625" width="7.875" height="7.875" rx="3" fill="#6C6C6C" stroke="white" stroke-width="1.4"/>
<path d="M20.1498 22.0569L19.0435 20.9506L18.6667 21.3247L20.1498 22.8077L23.3334 19.6241L22.9593 19.25L20.1498 22.0569Z" fill="white" stroke="white" stroke-width="0.7"/>
</svg>
