<svg width="32" height="32" viewBox="0 0 32 32" fill="none" xmlns="http://www.w3.org/2000/svg">
<path d="M16 28C22.6274 28 28 22.6274 28 16C28 9.37258 22.6274 4 16 4C9.37258 4 4 9.37258 4 16C4 22.6274 9.37258 28 16 28Z" fill="#F6E1CD"/>
<circle cx="16" cy="16" r="7.75" stroke="#DC9E63" stroke-width="2" stroke-linecap="round"/>
<path d="M19 13L13 15.25" stroke="#DC9E63" stroke-width="2" stroke-linecap="round"/>
<path d="M13 13L19 15.25" stroke="#DC9E63" stroke-width="2" stroke-linecap="round"/>
<path d="M13 17.9167C13 17.6865 13.1865 17.5 13.4167 17.5H18.5833C18.8135 17.5 19 17.6865 19 17.9167V18.25C19 19.9069 17.6569 21.25 16 21.25C14.3431 21.25 13 19.9069 13 18.25V17.9167Z" fill="#DC9E63"/>
<rect x="21.0625" y="21.0625" width="7.875" height="7.875" rx="3" fill="#6C6C6C" stroke="white" stroke-width="1.4"/>
<path d="M24.1498 26.0569L23.0435 24.9506L22.6667 25.3247L24.1498 26.8077L27.3334 23.6241L26.9593 23.25L24.1498 26.0569Z" fill="white" stroke="white" stroke-width="0.7"/>
</svg>
