<svg width="32" height="32" viewBox="0 0 32 32" fill="none" xmlns="http://www.w3.org/2000/svg">
<path d="M27.5 16C27.5 22.3513 22.3513 27.5 16 27.5C9.64872 27.5 4.5 22.3513 4.5 16C4.5 9.64873 9.64872 4.5 16 4.5C22.3513 4.5 27.5 9.64873 27.5 16Z" fill="white" stroke="#F2F2F2"/>
<circle cx="16" cy="16" r="7.75" stroke="#A8AAB0" stroke-width="2" stroke-linecap="round"/>
<path d="M13.8349 17.25C14.0544 17.63 14.37 17.9456 14.75 18.1651C15.13 18.3845 15.5612 18.5 16 18.5C16.4388 18.5 16.87 18.3845 17.25 18.1651C17.63 17.9456 17.9456 17.63 18.1651 17.25" stroke="#A8AAB0" stroke-width="2" stroke-linecap="round"/>
<rect x="12.125" y="12.875" width="2.5" height="1.75" rx="0.875" fill="#A8AAB0" stroke="#A8AAB0" stroke-width="0.25" stroke-linecap="round"/>
<rect x="17.375" y="12.875" width="2.5" height="1.75" rx="0.875" fill="#A8AAB0" stroke="#A8AAB0" stroke-width="0.25" stroke-linecap="round"/>
<rect x="21.0625" y="21.0625" width="7.875" height="7.875" rx="3" fill="#6C6C6C" stroke="white" stroke-width="1.4"/>
<path d="M24.1498 26.0569L23.0435 24.9506L22.6667 25.3247L24.1498 26.8077L27.3334 23.6241L26.9593 23.25L24.1498 26.0569Z" fill="white" stroke="white" stroke-width="0.7"/>
</svg>
