<svg width="32" height="32" viewBox="0 0 32 32" fill="none" xmlns="http://www.w3.org/2000/svg">
<g clip-path="url(#clip0_1420_1868)">
<path d="M16 28C22.6274 28 28 22.6274 28 16C28 9.37258 22.6274 4 16 4C9.37258 4 4 9.37258 4 16C4 22.6274 9.37258 28 16 28Z" fill="#E2EAD2"/>
<circle cx="16" cy="16" r="7.75" stroke="#889470" stroke-width="2" stroke-linecap="round"/>
<path d="M13.1903 18.9601C13.5204 18.8887 13.9525 18.8372 14.428 18.8028C14.9113 18.768 15.4529 18.75 16 18.75C16.5471 18.75 17.0887 18.768 17.572 18.8028C18.0475 18.8372 18.4796 18.8887 18.8097 18.9601" stroke="#889470" stroke-width="2" stroke-linecap="round"/>
<mask id="path-4-outside-1_1420_1868" maskUnits="userSpaceOnUse" x="12" y="13.75" width="3" height="2" fill="black">
<rect fill="white" x="12" y="13.75" width="3" height="2"/>
<path d="M14 14.5C14.2307 14.5 14.346 14.5 14.4144 14.6408C14.4828 14.7816 14.435 14.8423 14.3394 14.9638C14.3211 14.987 14.3014 15.0092 14.2803 15.0303C14.1397 15.171 13.9489 15.25 13.75 15.25C13.5511 15.25 13.3603 15.171 13.2197 15.0303C13.1986 15.0092 13.1789 14.987 13.1606 14.9638C13.065 14.8423 13.0172 14.7816 13.0856 14.6408C13.154 14.5 13.2693 14.5 13.5 14.5L13.75 14.5H14Z"/>
</mask>
<path d="M14 14.5C14.2307 14.5 14.346 14.5 14.4144 14.6408C14.4828 14.7816 14.435 14.8423 14.3394 14.9638C14.3211 14.987 14.3014 15.0092 14.2803 15.0303C14.1397 15.171 13.9489 15.25 13.75 15.25C13.5511 15.25 13.3603 15.171 13.2197 15.0303C13.1986 15.0092 13.1789 14.987 13.1606 14.9638C13.065 14.8423 13.0172 14.7816 13.0856 14.6408C13.154 14.5 13.2693 14.5 13.5 14.5L13.75 14.5H14Z" fill="#889470"/>
<path d="M14 14.5C14.2307 14.5 14.346 14.5 14.4144 14.6408C14.4828 14.7816 14.435 14.8423 14.3394 14.9638C14.3211 14.987 14.3014 15.0092 14.2803 15.0303C14.1397 15.171 13.9489 15.25 13.75 15.25C13.5511 15.25 13.3603 15.171 13.2197 15.0303C13.1986 15.0092 13.1789 14.987 13.1606 14.9638C13.065 14.8423 13.0172 14.7816 13.0856 14.6408C13.154 14.5 13.2693 14.5 13.5 14.5L13.75 14.5H14Z" stroke="#889470" stroke-linecap="round" mask="url(#path-4-outside-1_1420_1868)"/>
<mask id="path-5-outside-2_1420_1868" maskUnits="userSpaceOnUse" x="16.5" y="13.75" width="3" height="2" fill="black">
<rect fill="white" x="16.5" y="13.75" width="3" height="2"/>
<path d="M18.5 14.5C18.7307 14.5 18.846 14.5 18.9144 14.6408C18.9828 14.7816 18.935 14.8423 18.8394 14.9638C18.8211 14.987 18.8014 15.0092 18.7803 15.0303C18.6397 15.171 18.4489 15.25 18.25 15.25C18.0511 15.25 17.8603 15.171 17.7197 15.0303C17.6986 15.0092 17.6789 14.987 17.6606 14.9638C17.565 14.8423 17.5172 14.7816 17.5856 14.6408C17.654 14.5 17.7693 14.5 18 14.5L18.25 14.5H18.5Z"/>
</mask>
<path d="M18.5 14.5C18.7307 14.5 18.846 14.5 18.9144 14.6408C18.9828 14.7816 18.935 14.8423 18.8394 14.9638C18.8211 14.987 18.8014 15.0092 18.7803 15.0303C18.6397 15.171 18.4489 15.25 18.25 15.25C18.0511 15.25 17.8603 15.171 17.7197 15.0303C17.6986 15.0092 17.6789 14.987 17.6606 14.9638C17.565 14.8423 17.5172 14.7816 17.5856 14.6408C17.654 14.5 17.7693 14.5 18 14.5L18.25 14.5H18.5Z" fill="#889470"/>
<path d="M18.5 14.5C18.7307 14.5 18.846 14.5 18.9144 14.6408C18.9828 14.7816 18.935 14.8423 18.8394 14.9638C18.8211 14.987 18.8014 15.0092 18.7803 15.0303C18.6397 15.171 18.4489 15.25 18.25 15.25C18.0511 15.25 17.8603 15.171 17.7197 15.0303C17.6986 15.0092 17.6789 14.987 17.6606 14.9638C17.565 14.8423 17.5172 14.7816 17.5856 14.6408C17.654 14.5 17.7693 14.5 18 14.5L18.25 14.5H18.5Z" stroke="#889470" stroke-linecap="round" mask="url(#path-5-outside-2_1420_1868)"/>
<path d="M25.9068 26.3589L24.4844 24.9365L24 25.4174L25.9068 27.3242L30 23.231L29.519 22.75L25.9068 26.3589Z" fill="white" stroke="white" stroke-width="0.7"/>
<rect x="21.0625" y="21.0625" width="7.875" height="7.875" rx="3" fill="#6C6C6C" stroke="white" stroke-width="1.4"/>
<path d="M24.1498 26.0569L23.0435 24.9506L22.6667 25.3247L24.1498 26.8077L27.3334 23.6241L26.9593 23.25L24.1498 26.0569Z" fill="white" stroke="white" stroke-width="0.7"/>
</g>
<defs>
<clipPath id="clip0_1420_1868">
<rect width="32" height="32" fill="white"/>
</clipPath>
</defs>
</svg>
