<svg width="32" height="32" viewBox="0 0 32 32" fill="none" xmlns="http://www.w3.org/2000/svg">
<path d="M16 28C22.6274 28 28 22.6274 28 16C28 9.37258 22.6274 4 16 4C9.37258 4 4 9.37258 4 16C4 22.6274 9.37258 28 16 28Z" fill="#D4C1DD"/>
<circle cx="16" cy="16" r="7.75" stroke="#90739E" stroke-width="2" stroke-linecap="round"/>
<circle cx="13.75" cy="13.75" r="1" fill="#90739E" stroke="#90739E" stroke-width="0.5" stroke-linecap="round"/>
<circle cx="18.25" cy="13.75" r="1" fill="#90739E" stroke="#90739E" stroke-width="0.5" stroke-linecap="round"/>
<mask id="path-5-outside-1_1420_1878" maskUnits="userSpaceOnUse" x="12.75" y="15.75" width="7" height="6" fill="black">
<rect fill="white" x="12.75" y="15.75" width="7" height="6"/>
<path d="M18.25 18.625C18.25 19.6605 17.2426 20.5 16 20.5C14.7574 20.5 13.75 19.6605 13.75 18.625C13.75 17.5895 14.7574 16.75 16 16.75C17.2426 16.75 18.25 17.5895 18.25 18.625Z"/>
</mask>
<path d="M18.25 18.625C18.25 19.6605 17.2426 20.5 16 20.5C14.7574 20.5 13.75 19.6605 13.75 18.625C13.75 17.5895 14.7574 16.75 16 16.75C17.2426 16.75 18.25 17.5895 18.25 18.625Z" fill="#90739E"/>
<path d="M17.25 18.625C17.25 18.9453 16.8688 19.5 16 19.5V21.5C17.6165 21.5 19.25 20.3758 19.25 18.625H17.25ZM16 19.5C15.1312 19.5 14.75 18.9453 14.75 18.625H12.75C12.75 20.3758 14.3835 21.5 16 21.5V19.5ZM14.75 18.625C14.75 18.3047 15.1312 17.75 16 17.75V15.75C14.3835 15.75 12.75 16.8742 12.75 18.625H14.75ZM16 17.75C16.8688 17.75 17.25 18.3047 17.25 18.625H19.25C19.25 16.8742 17.6165 15.75 16 15.75V17.75Z" fill="#90739E" mask="url(#path-5-outside-1_1420_1878)"/>
<rect x="21.0625" y="21.0625" width="7.875" height="7.875" rx="3" fill="#6C6C6C" stroke="white" stroke-width="1.4"/>
<path d="M24.1498 26.0569L23.0435 24.9506L22.6667 25.3247L24.1498 26.8077L27.3334 23.6241L26.9593 23.25L24.1498 26.0569Z" fill="white" stroke="white" stroke-width="0.7"/>
</svg>
