<svg width="28" height="28" viewBox="0 0 28 28" fill="none" xmlns="http://www.w3.org/2000/svg">
<path d="M7.47223 4.32812C5.77259 5.47552 4.40541 7.05063 3.50845 8.89474C2.61149 10.7389 2.21645 12.7868 2.36314 14.8322C2.50984 16.8777 3.19308 18.8483 4.34402 20.5455C5.49495 22.2428 7.07291 23.6067 8.9189 24.4998" fill="#FFA9A9" fill-opacity="0.6"/>
<path d="M7.47223 4.32812C5.77259 5.47552 4.40541 7.05063 3.50845 8.89474C2.61149 10.7389 2.21645 12.7868 2.36314 14.8322C2.50984 16.8777 3.19308 18.8483 4.34402 20.5455C5.49495 22.2428 7.07291 23.6067 8.9189 24.4998" stroke="#FFA9A9" stroke-width="2.5" stroke-miterlimit="10" stroke-linecap="round"/>
<path d="M13.9824 2.33401C11.6576 2.32957 9.38516 3.0247 7.46069 4.32901C9.48221 5.23456 11.2096 6.68844 12.4468 8.52576C13.6841 10.3631 14.3818 12.5103 14.4607 14.724C14.3948 16.6759 13.86 18.5833 12.9016 20.285C11.9431 21.9866 10.5892 23.4326 8.95403 24.5007C10.5347 25.2712 12.2706 25.6703 14.0291 25.6674C17.1233 25.6674 20.0907 24.4382 22.2786 22.2503C24.4666 20.0623 25.6957 17.0949 25.6957 14.0007C25.6957 10.9065 24.4666 7.93902 22.2786 5.75109C20.0907 3.56317 17.1233 2.33401 14.0291 2.33401H13.9824Z" fill="white" stroke="#FFA9A9" stroke-width="2.5" stroke-linecap="round" stroke-linejoin="round"/>
<path d="M8.90715 24.5C10.536 23.4364 11.886 21.9978 12.8441 20.3049C13.8023 18.6119 14.3405 16.7139 14.4138 14.77C14.3349 12.5563 13.6372 10.4091 12.3999 8.57175C11.1627 6.73443 9.43534 5.28055 7.41382 4.375" fill="#FFA9A9" fill-opacity="0.6"/>
<path d="M8.90715 24.5C10.536 23.4364 11.886 21.9978 12.8441 20.3049C13.8023 18.6119 14.3405 16.7139 14.4138 14.77C14.3349 12.5563 13.6372 10.4091 12.3999 8.57175C11.1627 6.73443 9.43534 5.28055 7.41382 4.375" stroke="#FFA9A9" stroke-width="0.54" stroke-miterlimit="10"/>
<path d="M12.9991 17.8395C13.0999 17.52 13.0221 17.2106 12.8255 17.1486C12.6289 17.0866 12.3878 17.2954 12.287 17.615C12.1863 17.9345 12.264 18.2438 12.4606 18.3058C12.6573 18.3678 12.8984 18.159 12.9991 17.8395Z" fill="white"/>
<path d="M15.4055 8.73828C16.5292 10.5131 17.1128 12.5762 17.0855 14.6766C17.1031 16.5647 16.6329 18.4253 15.7205 20.0783" stroke="#FFA9A9" stroke-width="0.54" stroke-linecap="round" stroke-linejoin="round"/>
<path d="M17.0623 8.13184C18.3044 10.0951 18.9489 12.3772 18.9173 14.7002C18.9382 16.795 18.4199 18.8601 17.4123 20.6968" stroke="#FFA9A9" stroke-width="0.54" stroke-linecap="round" stroke-linejoin="round"/>
<rect x="17.0625" y="17.0625" width="7.875" height="7.875" rx="3" fill="#6C6C6C" stroke="white" stroke-width="1.4"/>
<path d="M20.1498 22.0569L19.0435 20.9506L18.6667 21.3247L20.1498 22.8077L23.3334 19.6241L22.9593 19.25L20.1498 22.0569Z" fill="white" stroke="white" stroke-width="0.7"/>
</svg>
