<svg width="28" height="28" viewBox="0 0 28 28" fill="none" xmlns="http://www.w3.org/2000/svg">
<path d="M7.43215 4.375C5.7438 5.525 4.387 7.09815 3.49745 8.9371C2.60791 10.776 2.21682 12.8163 2.36328 14.8539C2.50975 16.8914 3.18864 18.8548 4.33206 20.5476C5.47548 22.2404 7.04334 23.6033 8.87881 24.5" fill="#FFA9A9" fill-opacity="0.6"/>
<path d="M7.43215 4.375C5.7438 5.525 4.387 7.09815 3.49745 8.9371C2.60791 10.776 2.21682 12.8163 2.36328 14.8539C2.50975 16.8914 3.18864 18.8548 4.33206 20.5476C5.47548 22.2404 7.04334 23.6033 8.87881 24.5" stroke="#FFA9A9" stroke-width="2.5" stroke-linecap="round" stroke-linejoin="round"/>
<path d="M13.9423 2.33301C11.6126 2.34233 9.3398 3.05385 7.42065 4.37467C9.44217 5.28023 11.1695 6.7341 12.4068 8.57143C13.644 10.4088 14.3417 12.556 14.4207 14.7697C14.3547 16.7216 13.82 18.629 12.8615 20.3306C11.903 22.0323 10.5491 23.4783 8.91399 24.5463C10.4947 25.3169 12.2305 25.7159 13.989 25.713C17.0832 25.713 20.0506 24.4838 22.2386 22.2959C24.4265 20.108 25.6557 17.1405 25.6557 14.0463C25.6557 10.9521 24.4265 7.98469 22.2386 5.79676C20.0506 3.60884 17.0832 2.37967 13.989 2.37967L13.9423 2.33301Z" fill="white" stroke="#FFA9A9" stroke-width="2.5" stroke-linecap="round" stroke-linejoin="round"/>
<path d="M8.86732 24.5C10.5024 23.4319 11.8564 21.9859 12.8148 20.2843C13.7733 18.5826 14.3081 16.6752 14.374 14.7233C14.2906 12.5228 13.5959 10.389 12.3678 8.56114C11.1396 6.73331 9.42653 5.28375 7.42065 4.375" fill="#FFA9A9" fill-opacity="0.6"/>
<path d="M8.86732 24.5C10.5024 23.4319 11.8564 21.9859 12.8148 20.2843C13.7733 18.5826 14.3081 16.6752 14.374 14.7233C14.2906 12.5228 13.5959 10.389 12.3678 8.56114C11.1396 6.73331 9.42653 5.28375 7.42065 4.375" stroke="#FFA9A9" stroke-width="0.54" stroke-miterlimit="10"/>
<path d="M16.2407 16.2288V15.7622C16.0073 14.0705 15.8557 12.9622 16.4507 12.2622C16.6818 11.9892 17.0115 11.8188 17.3678 11.7882C17.7242 11.7576 18.0781 11.8693 18.3523 12.0988C18.5115 12.2342 18.6396 12.4022 18.7282 12.5914C18.8168 12.7806 18.8637 12.9866 18.8657 13.1955C19.0722 13.1632 19.2833 13.1756 19.4845 13.2319C19.6858 13.2883 19.8727 13.3873 20.0323 13.5222C20.1608 13.6409 20.2642 13.784 20.3368 13.9432C20.4093 14.1023 20.4495 14.2743 20.4549 14.4491C20.4604 14.6239 20.431 14.7981 20.3684 14.9614C20.3059 15.1247 20.2115 15.274 20.0907 15.4005C19.4957 16.1122 18.3757 16.1472 16.6723 16.2172L16.2407 16.2288Z" fill="#FFA9A9" fill-opacity="0.6"/>
<path d="M18.6206 10.6751V10.4534C18.4923 9.66011 18.4223 9.14678 18.6906 8.82011C18.7482 8.76084 18.8171 8.71373 18.8933 8.68156C18.9694 8.64939 19.0513 8.63281 19.1339 8.63281C19.2166 8.63281 19.2984 8.64939 19.3746 8.68156C19.4507 8.71373 19.5196 8.76084 19.5773 8.82011C19.6563 8.88049 19.7205 8.95812 19.765 9.04708C19.8095 9.13605 19.833 9.23399 19.8339 9.33344C19.9308 9.3174 20.0301 9.32266 20.1248 9.34885C20.2195 9.37504 20.3073 9.42154 20.3823 9.48511C20.448 9.53621 20.5027 9.60005 20.5432 9.67282C20.5836 9.74558 20.609 9.82577 20.6177 9.90857C20.6264 9.99137 20.6183 10.0751 20.5939 10.1547C20.5695 10.2343 20.5292 10.3081 20.4756 10.3718C20.2073 10.6984 19.6706 10.7101 18.8773 10.7334L18.6206 10.6751Z" fill="#FFA9A9" fill-opacity="0.6"/>
<path d="M12.9612 17.8315C13.0619 17.5119 12.9842 17.2026 12.7876 17.1406C12.5909 17.0786 12.3498 17.2874 12.2491 17.607C12.1483 17.9265 12.2261 18.2358 12.4227 18.2978C12.6193 18.3598 12.8604 18.151 12.9612 17.8315Z" fill="white" stroke="white" stroke-width="0.18" stroke-miterlimit="10"/>
<rect x="17.0625" y="17.0625" width="7.875" height="7.875" rx="3" fill="#6C6C6C" stroke="white" stroke-width="1.4"/>
<path d="M20.1498 22.0569L19.0435 20.9506L18.6667 21.3247L20.1498 22.8077L23.3334 19.6241L22.9593 19.25L20.1498 22.0569Z" fill="white" stroke="white" stroke-width="0.7"/>
</svg>
