<svg width="28" height="28" viewBox="0 0 28 28" fill="none" xmlns="http://www.w3.org/2000/svg">
<path d="M13.9999 25.6673C20.4432 25.6673 25.6665 20.444 25.6665 14.0007C25.6665 7.55732 20.4432 2.33398 13.9999 2.33398C7.5566 2.33398 2.33325 7.55732 2.33325 14.0007C2.33325 20.444 7.5566 25.6673 13.9999 25.6673Z" fill="#FFA9A9" fill-opacity="0.6" stroke="#FFA9A9" stroke-width="2.5" stroke-miterlimit="10"/>
<path d="M10.1266 21.3031C10.6399 21.3031 10.6166 20.7198 10.8732 20.2881C11.2932 19.5648 11.8066 19.5648 13.0082 19.6815C22.3416 20.5215 22.3416 9.79981 17.3482 9.50814C16.0999 9.43814 15.6916 8.57481 15.4232 7.29148C15.4012 7.16765 15.3482 7.0514 15.2692 6.95352C15.1902 6.85565 15.0878 6.7793 14.9714 6.73159C14.855 6.68387 14.7285 6.66634 14.6035 6.68059C14.4785 6.69485 14.3592 6.74044 14.2566 6.81314L13.0082 7.61814C14.1166 12.5998 14.4549 13.2881 12.0632 15.9715C9.90493 18.3981 9.08827 15.9715 7.80493 21.0698L10.1266 21.3031Z" fill="white"/>
<path d="M16.1583 15.1198C19.5766 14.1048 18.4916 12.6582 18.8766 14.0932C19.46 16.5315 16.3217 18.5848 14.5367 18.1765C12.7517 17.7682 13.79 15.8431 16.1583 15.1198Z" fill="#FFA9A9" fill-opacity="0.6"/>
<rect x="17.0625" y="17.0625" width="7.875" height="7.875" rx="3" fill="#6C6C6C" stroke="white" stroke-width="1.4"/>
<path d="M20.1498 22.0569L19.0435 20.9506L18.6667 21.3247L20.1498 22.8077L23.3334 19.6241L22.9593 19.25L20.1498 22.0569Z" fill="white" stroke="white" stroke-width="0.7"/>
</svg>
