<svg width="28" height="28" viewBox="0 0 28 28" fill="none" xmlns="http://www.w3.org/2000/svg">
<path d="M7.48231 4.32812C5.77983 5.47485 4.41003 7.05045 3.51121 8.89586C2.61239 10.7413 2.21636 12.7912 2.36311 14.8386C2.50986 16.886 3.19419 18.8584 4.34702 20.5568C5.49984 22.2551 7.08035 23.6193 8.92898 24.5115" fill="#FFA9A9" fill-opacity="0.6"/>
<path d="M7.48231 4.32812C5.77983 5.47485 4.41003 7.05045 3.51121 8.89586C2.61239 10.7413 2.21636 12.7912 2.36311 14.8386C2.50986 16.886 3.19419 18.8584 4.34702 20.5568C5.49984 22.2551 7.08035 23.6193 8.92898 24.5115" stroke="#FFA9A9" stroke-width="2.5" stroke-miterlimit="10"/>
<path d="M13.9924 2.33401C11.6676 2.32957 9.39518 3.0247 7.4707 4.32901C9.49222 5.23456 11.2196 6.68844 12.4568 8.52576C13.6941 10.3631 14.3917 12.5103 14.4707 14.724C14.4037 16.6773 13.8686 18.5859 12.9103 20.2893C11.952 21.9927 10.5987 23.441 8.96404 24.5124C10.5447 25.2829 12.2806 25.6819 14.039 25.679C17.1332 25.679 20.1007 24.4499 22.2886 22.2619C24.4765 20.074 25.7057 17.1065 25.7057 14.0124C25.7057 10.9182 24.4765 7.95069 22.2886 5.76276C20.1007 3.57484 17.1332 2.34567 14.039 2.34567L13.9924 2.33401Z" fill="white" stroke="#FFA9A9" stroke-width="2.5" stroke-linecap="round" stroke-linejoin="round"/>
<path d="M8.9174 24.5115C10.552 23.4401 11.9054 21.9918 12.8637 20.2884C13.822 18.585 14.3571 16.6764 14.4241 14.7231C14.3451 12.5095 13.6474 10.3622 12.4102 8.52489C11.1729 6.68757 9.44559 5.23369 7.42407 4.32812" fill="#FFA9A9" fill-opacity="0.6"/>
<path d="M8.9174 24.5115C10.552 23.4401 11.9054 21.9918 12.8637 20.2884C13.822 18.585 14.3571 16.6764 14.4241 14.7231C14.3451 12.5095 13.6474 10.3622 12.4102 8.52489C11.1729 6.68757 9.44559 5.23369 7.42407 4.32812" stroke="#FFA9A9" stroke-width="0.54" stroke-miterlimit="10"/>
<path d="M13.0072 17.8434C13.108 17.5238 13.0302 17.2145 12.8336 17.1525C12.6369 17.0905 12.3959 17.2993 12.2951 17.6189C12.1943 17.9384 12.2721 18.2477 12.4687 18.3097C12.6654 18.3717 12.9065 18.1629 13.0072 17.8434Z" fill="white" stroke="white" stroke-width="0.18" stroke-miterlimit="10"/>
<path d="M18.6824 12.1562C19.4153 12.9164 19.8494 13.9153 19.9052 14.9697C19.9609 16.0241 19.6344 17.0632 18.9857 17.8962" stroke="#FFA9A9" stroke-width="0.54" stroke-linecap="round" stroke-linejoin="round"/>
<path d="M17.7141 12.9971C18.2583 13.541 18.5793 14.2688 18.6139 15.0375C18.6484 15.8062 18.394 16.5599 17.9007 17.1504" stroke="#FFA9A9" stroke-width="0.54" stroke-linecap="round" stroke-linejoin="round"/>
<path d="M16.5239 13.6494C16.9126 14.0286 17.145 14.5397 17.1752 15.0818C17.2055 15.6239 17.0314 16.1577 16.6873 16.5777" stroke="#FFA9A9" stroke-width="0.54" stroke-linecap="round" stroke-linejoin="round"/>
<rect x="17.0625" y="17.0625" width="7.875" height="7.875" rx="3" fill="#6C6C6C" stroke="white" stroke-width="1.4"/>
<path d="M20.1498 22.0569L19.0435 20.9506L18.6667 21.3247L20.1498 22.8077L23.3334 19.6241L22.9593 19.25L20.1498 22.0569Z" fill="white" stroke="white" stroke-width="0.7"/>
</svg>
