<svg width="27" height="27" viewBox="0 0 27 27" fill="none" xmlns="http://www.w3.org/2000/svg">
<path d="M13.75 25.5C20.2393 25.5 25.5 20.2393 25.5 13.75C25.5 7.26065 20.2393 2 13.75 2C7.26065 2 2 7.26065 2 13.75C2 20.2393 7.26065 25.5 13.75 25.5Z" fill="#F5C1C1" stroke="#FFA9A9" stroke-width="2.5"/>
<path d="M11.2009 10.1455C11.2009 10.1455 5.64303 9.9942 6.32568 11.4877C7.00833 12.9811 24.709 12.6282 21.0584 11.1978C18.3425 10.1308 16.4668 10.1182 16.4668 10.1182" stroke="white" stroke-width="1.2" stroke-linecap="round" stroke-linejoin="round"/>
<path d="M11.5137 12.4753C11.5137 12.4753 6.60077 12.3429 7.20361 13.662C7.80644 14.9811 23.4591 14.6723 20.2265 13.4058C17.8256 12.4627 16.1663 12.4521 16.1663 12.4521" stroke="white" stroke-width="1.2" stroke-linecap="round" stroke-linejoin="round"/>
<path d="M11.5454 14.5357C11.5454 14.5357 7.13434 14.4159 7.67626 15.6006C8.21818 16.7853 22.2745 16.508 19.3675 15.3716C17.2124 14.5315 15.7232 14.5146 15.7232 14.5146" stroke="white" stroke-width="1.2" stroke-linecap="round" stroke-linejoin="round"/>
<path d="M12.0052 16.3696C12.0052 16.3696 8.54162 16.2499 8.96801 17.4346C9.3944 18.6192 20.426 18.3399 18.1512 17.2035C16.4582 16.3633 15.2883 16.3486 15.2883 16.3486" stroke="white" stroke-width="1.2" stroke-linecap="round" stroke-linejoin="round"/>
<path d="M13.6499 9.55469V19.8092" stroke="white" stroke-width="1.5" stroke-linecap="round" stroke-linejoin="round"/>
<path d="M20.4743 20.4343H20.2874L20.4743 19.0144H19.8253C19.7181 19.0144 19.7181 18.9493 19.7538 18.88C19.7895 18.8107 19.7538 18.8632 19.7664 18.8569C20.0059 18.3948 20.3651 17.7079 20.844 16.79H21.0288L20.844 18.2058H21.493C21.5833 18.2058 21.5959 18.2709 21.5791 18.3087L21.5665 18.3381C20.8356 19.737 20.4743 20.4343 20.4743 20.4343Z" fill="white"/>
<rect x="16.0625" y="16.0625" width="7.875" height="7.875" rx="3" fill="#6C6C6C" stroke="white" stroke-width="1.4"/>
<path d="M19.1498 21.0569L18.0435 19.9506L17.6667 20.3247L19.1498 21.8077L22.3334 18.6241L21.9593 18.25L19.1498 21.0569Z" fill="white" stroke="white" stroke-width="0.7"/>
</svg>
