<svg width="28" height="28" viewBox="0 0 28 28" fill="none" xmlns="http://www.w3.org/2000/svg">
<path d="M13.9999 25.6673C20.4432 25.6673 25.6665 20.444 25.6665 14.0007C25.6665 7.55732 20.4432 2.33398 13.9999 2.33398C7.5566 2.33398 2.33325 7.55732 2.33325 14.0007C2.33325 20.444 7.5566 25.6673 13.9999 25.6673Z" fill="#FFA9A9" fill-opacity="0.6" stroke="#FFA9A9" stroke-width="2.5" stroke-miterlimit="10"/>
<path d="M18.8183 15.8779C18.1253 16.8653 17.1475 17.6178 16.0155 18.0347C14.8835 18.4517 13.6512 18.5132 12.4833 18.2112C11.8023 17.9871 11.1821 17.6091 10.6708 17.1066C10.1595 16.6041 9.77092 15.9905 9.5351 15.3135C9.29927 14.6365 9.2226 13.9142 9.31103 13.2028C9.39945 12.4914 9.65059 11.8099 10.0449 11.2112C10.7273 10.3215 11.7199 9.72175 12.8249 9.53146C13.9299 9.34117 15.0659 9.57437 16.0066 10.1845C16.3927 10.3874 16.7279 10.675 16.9872 11.0257C17.2465 11.3764 17.4231 11.7812 17.5039 12.2098C17.5847 12.6384 17.5675 13.0798 17.4537 13.5008C17.3399 13.9218 17.1323 14.3117 16.8466 14.6412C16.4182 15.168 15.8136 15.5221 15.1446 15.6379C14.4755 15.7537 13.7871 15.6234 13.2066 15.2712C12.9885 15.1315 12.8012 14.9487 12.6562 14.734C12.5113 14.5193 12.4117 14.2773 12.3637 14.0228C12.3156 13.7682 12.32 13.5065 12.3767 13.2538C12.4334 13.001 12.5411 12.7625 12.6933 12.5529C12.943 12.2168 13.3122 11.9895 13.7247 11.9179C14.1372 11.8462 14.5615 11.9357 14.9099 12.1679C15.0645 12.249 15.1989 12.3637 15.3032 12.5037C15.4075 12.6436 15.4792 12.8052 15.5127 12.9765C15.5463 13.1478 15.541 13.3244 15.4973 13.4934C15.4535 13.6624 15.3724 13.8194 15.2599 13.9529" stroke="white" stroke-width="0.9" stroke-miterlimit="10" stroke-linecap="round"/>
<rect x="17.0625" y="17.0625" width="7.875" height="7.875" rx="3" fill="#6C6C6C" stroke="white" stroke-width="1.4"/>
<path d="M20.1498 22.0569L19.0435 20.9506L18.6667 21.3247L20.1498 22.8077L23.3334 19.6241L22.9593 19.25L20.1498 22.0569Z" fill="white" stroke="white" stroke-width="0.7"/>
</svg>
