<svg width="28" height="28" viewBox="0 0 28 28" fill="none" xmlns="http://www.w3.org/2000/svg">
<path d="M13.9999 25.6673C20.4432 25.6673 25.6666 20.444 25.6666 14.0007C25.6666 7.55732 20.4432 2.33398 13.9999 2.33398C7.5566 2.33398 2.33325 7.55732 2.33325 14.0007C2.33325 20.444 7.5566 25.6673 13.9999 25.6673Z" fill="#FFA9A9" fill-opacity="0.6" stroke="#FFA9A9" stroke-width="2.5" stroke-miterlimit="10"/>
<path d="M18.585 9.32114C18.5229 11.0682 18.6167 12.8173 18.865 14.5478C19.2267 15.6328 20.5683 17.6745 19.5417 18.2345C18.515 18.7945 18.0133 18.3395 16.1583 18.2345C15.1893 18.2099 14.2211 18.3079 13.2767 18.5261C13.2246 18.5707 13.1585 18.5954 13.09 18.5961C10.9764 18.7245 8.85698 18.7245 6.74337 18.5961C5.74004 18.3161 6.11337 17.3245 6.11337 16.7645C6.11337 16.2045 8.06171 16.5195 9.03004 16.3095C10.5829 15.7051 12.0751 14.9551 13.4867 14.0695C13.965 13.7428 13.4867 9.28613 13.4867 9.28613L18.585 9.32114Z" fill="white"/>
<path d="M16.9167 14.0811C17.0684 14.189 17.192 14.3316 17.2774 14.497C17.3627 14.6624 17.4073 14.8458 17.4073 15.032C17.4073 15.2181 17.3627 15.4015 17.2774 15.567C17.192 15.7324 17.0684 15.875 16.9167 15.9828" stroke="#FFA9A9" stroke-width="0.68" stroke-linecap="round" stroke-linejoin="round"/>
<path d="M6.31177 16.8694C6.31177 17.2311 7.36177 17.3244 7.60677 16.4727" stroke="#FFA9A9" stroke-width="0.15" stroke-linecap="round" stroke-linejoin="round"/>
<rect x="17.0625" y="17.0625" width="7.875" height="7.875" rx="3" fill="#6C6C6C" stroke="white" stroke-width="1.4"/>
<path d="M20.1498 22.0569L19.0435 20.9506L18.6667 21.3247L20.1498 22.8077L23.3334 19.6241L22.9593 19.25L20.1498 22.0569Z" fill="white" stroke="white" stroke-width="0.7"/>
</svg>
