<svg width="28" height="28" viewBox="0 0 28 28" fill="none" xmlns="http://www.w3.org/2000/svg">
<path d="M7.47223 4.32812C5.77258 5.47552 4.40539 7.05063 3.50843 8.89474C2.61147 10.7389 2.21645 12.7868 2.36315 14.8322C2.50984 16.8777 3.19307 18.8483 4.344 20.5455C5.49494 22.2428 7.07292 23.6067 8.9189 24.4998" fill="#FFA9A9" fill-opacity="0.6"/>
<path d="M7.47223 4.32812C5.77258 5.47552 4.40539 7.05063 3.50843 8.89474C2.61147 10.7389 2.21645 12.7868 2.36315 14.8322C2.50984 16.8777 3.19307 18.8483 4.344 20.5455C5.49494 22.2428 7.07292 23.6067 8.9189 24.4998" stroke="#FFA9A9" stroke-width="2.5" stroke-miterlimit="10"/>
<path d="M13.9824 2.33401C11.6576 2.32957 9.38516 3.0247 7.46069 4.32901C9.48221 5.23456 11.2096 6.68844 12.4468 8.52576C13.6841 10.3631 14.3818 12.5103 14.4607 14.724C14.3948 16.6759 13.86 18.5833 12.9016 20.285C11.9431 21.9866 10.5891 23.4326 8.95402 24.5007C10.5347 25.2712 12.2706 25.6703 14.0291 25.6674C17.1232 25.6674 20.0907 24.4382 22.2786 22.2503C24.4666 20.0623 25.6957 17.0949 25.6957 14.0007C25.6957 10.9065 24.4666 7.93902 22.2786 5.75109C20.0907 3.56317 17.1232 2.33401 14.0291 2.33401H13.9824Z" fill="white" stroke="#FFA9A9" stroke-width="2.5" stroke-linecap="round" stroke-linejoin="round"/>
<path d="M8.90739 24.4998C10.5425 23.4317 11.8965 21.9857 12.8549 20.2841C13.8134 18.5824 14.3482 16.675 14.4141 14.7231C14.3351 12.5095 13.6375 10.3622 12.4002 8.52489C11.1629 6.68756 9.43558 5.23369 7.41406 4.32812" fill="#FFA9A9" fill-opacity="0.6"/>
<path d="M8.90739 24.4998C10.5425 23.4317 11.8965 21.9857 12.8549 20.2841C13.8134 18.5824 14.3482 16.675 14.4141 14.7231C14.3351 12.5095 13.6375 10.3622 12.4002 8.52489C11.1629 6.68756 9.43558 5.23369 7.41406 4.32812" stroke="#FFA9A9" stroke-width="0.54" stroke-miterlimit="10"/>
<path d="M12.8232 18.4219C12.9237 18.1036 12.8464 17.7954 12.6506 17.7336C12.4547 17.6717 12.2144 17.8796 12.1139 18.1979C12.0134 18.5162 12.0907 18.8244 12.2866 18.8862C12.4824 18.9481 12.7227 18.7402 12.8232 18.4219Z" fill="white"/>
<path d="M17.984 19.1339H17.634L17.984 16.4039H16.7356C16.5256 16.4039 16.5256 16.2872 16.5956 16.1472C16.6656 16.0072 16.5956 16.1472 16.5956 16.1472L18.6723 12.1689H19.0106L18.649 14.8989H19.909C20.084 14.8989 20.1073 15.0272 20.0723 15.0972V15.1555L17.984 19.1339Z" fill="#FFA9A9" fill-opacity="0.6"/>
<rect x="17.0625" y="17.0625" width="7.875" height="7.875" rx="3" fill="#6C6C6C" stroke="white" stroke-width="1.4"/>
<path d="M20.1498 22.0569L19.0435 20.9506L18.6667 21.3247L20.1498 22.8077L23.3334 19.6241L22.9593 19.25L20.1498 22.0569Z" fill="white" stroke="white" stroke-width="0.7"/>
</svg>
