<svg width="28" height="28" viewBox="0 0 28 28" fill="none" xmlns="http://www.w3.org/2000/svg">
<path d="M7.47222 4.32812C5.77258 5.47552 4.4054 7.05063 3.50844 8.89474C2.61148 10.7389 2.21645 12.7868 2.36314 14.8322C2.50984 16.8777 3.19307 18.8483 4.34401 20.5455C5.49494 22.2428 7.07291 23.6067 8.9189 24.4998" fill="#FFA9A9" fill-opacity="0.6"/>
<path d="M7.47222 4.32812C5.77258 5.47552 4.4054 7.05063 3.50844 8.89474C2.61148 10.7389 2.21645 12.7868 2.36314 14.8322C2.50984 16.8777 3.19307 18.8483 4.34401 20.5455C5.49494 22.2428 7.07291 23.6067 8.9189 24.4998" stroke="#FFA9A9" stroke-width="2.5" stroke-miterlimit="10"/>
<path d="M13.9941 2.33399C11.666 2.33224 9.39064 3.02703 7.46069 4.32899C9.48385 5.23229 11.2127 6.68561 12.4503 8.52342C13.6879 10.3612 14.3845 12.5097 14.4607 14.724C14.3948 16.6759 13.86 18.5833 12.9016 20.2849C11.9431 21.9866 10.5891 23.4326 8.95402 24.5007C10.5324 25.2651 12.2628 25.6639 14.0165 25.6673C15.7703 25.6708 17.5022 25.2788 19.0836 24.5206C20.6649 23.7623 22.055 22.6573 23.1504 21.2878C24.2458 19.9182 25.0183 18.3193 25.4106 16.61C25.8028 14.9007 25.8046 13.125 25.4159 11.4149C25.0272 9.70475 24.258 8.10427 23.1655 6.73244C22.0729 5.36062 20.6851 4.25276 19.1054 3.49125C17.5256 2.72974 15.7945 2.33418 14.0407 2.33399H13.9941Z" fill="white" stroke="#FFA9A9" stroke-width="2.5" stroke-linecap="round" stroke-linejoin="round"/>
<path d="M8.90739 24.5C10.5362 23.4364 11.8863 21.9978 12.8444 20.3049C13.8025 18.6119 14.3408 16.7139 14.4141 14.77C14.3378 12.5557 13.6412 10.4072 12.4037 8.56943C11.1661 6.73162 9.43722 5.2783 7.41406 4.375" fill="#FFA9A9" fill-opacity="0.6"/>
<path d="M8.90739 24.5C10.5362 23.4364 11.8863 21.9978 12.8444 20.3049C13.8025 18.6119 14.3408 16.7139 14.4141 14.77C14.3378 12.5557 13.6412 10.4072 12.4037 8.56943C11.1661 6.73162 9.43722 5.2783 7.41406 4.375" stroke="#FFA9A9" stroke-width="0.54" stroke-miterlimit="10"/>
<path d="M13.0151 17.8317C13.1158 17.5121 13.0381 17.2028 12.8414 17.1408C12.6448 17.0788 12.4037 17.2876 12.3029 17.6072C12.2022 17.9267 12.2799 18.236 12.4766 18.298C12.6732 18.36 12.9143 18.1512 13.0151 17.8317Z" fill="white" stroke="white" stroke-width="0.18" stroke-miterlimit="10"/>
<path d="M16.6189 12.5643L19.0455 11.4443" stroke="#FFA9A9" stroke-width="0.5" stroke-miterlimit="10" stroke-linecap="round"/>
<path d="M16.6074 17.6514L18.9757 18.678" stroke="#FFA9A9" stroke-width="0.45" stroke-miterlimit="10" stroke-linecap="round"/>
<path d="M17.0273 15.1778L18.859 14.9561" stroke="#FFA9A9" stroke-width="0.43" stroke-miterlimit="10" stroke-linecap="round"/>
<rect x="17.0625" y="17.0625" width="7.875" height="7.875" rx="3" fill="#6C6C6C" stroke="white" stroke-width="1.4"/>
<path d="M20.1498 22.0569L19.0435 20.9506L18.6667 21.3247L20.1498 22.8077L23.3334 19.6241L22.9593 19.25L20.1498 22.0569Z" fill="white" stroke="white" stroke-width="0.7"/>
</svg>
