<svg width="28" height="28" viewBox="0 0 28 28" fill="none" xmlns="http://www.w3.org/2000/svg">
<path d="M13.9999 25.6673C20.4432 25.6673 25.6665 20.444 25.6665 14.0007C25.6665 7.55732 20.4432 2.33398 13.9999 2.33398C7.5566 2.33398 2.33325 7.55732 2.33325 14.0007C2.33325 20.444 7.5566 25.6673 13.9999 25.6673Z" fill="#FFA9A9" fill-opacity="0.6" stroke="#FFA9A9" stroke-width="2.48" stroke-miterlimit="10"/>
<path d="M17.3366 9.63672H10.5932C9.8394 9.63672 9.22827 10.2479 9.22827 11.0017V11.2934C9.22827 12.0473 9.8394 12.6584 10.5932 12.6584H17.3366C18.0904 12.6584 18.7016 12.0473 18.7016 11.2934V11.0017C18.7016 10.2479 18.0904 9.63672 17.3366 9.63672Z" fill="white"/>
<path d="M18.6899 12.9727H8.83155C8.07769 12.9727 7.46655 13.5839 7.46655 14.3377V14.6294C7.46655 15.3833 8.07769 15.9944 8.83155 15.9944H18.6899C19.4438 15.9944 20.0549 15.3833 20.0549 14.6294V14.3377C20.0549 13.5839 19.4438 12.9727 18.6899 12.9727Z" fill="white"/>
<path d="M17.1849 16.2979H10.7449C9.99102 16.2979 9.37988 16.9091 9.37988 17.6629V17.9546C9.37988 18.7085 9.99102 19.3196 10.7449 19.3196H17.1849C17.9388 19.3196 18.5499 18.7085 18.5499 17.9546V17.6629C18.5499 16.9091 17.9388 16.2979 17.1849 16.2979Z" fill="white"/>
<path d="M15.155 9.3214V7.81641H16.8816V9.3214" fill="white"/>
<path d="M11.2234 19.623V21.1397H12.9501V19.623" fill="white"/>
<rect x="17.0625" y="17.0625" width="7.875" height="7.875" rx="3" fill="#6C6C6C" stroke="white" stroke-width="1.4"/>
<path d="M20.1498 22.0569L19.0435 20.9506L18.6667 21.3247L20.1498 22.8077L23.3334 19.6241L22.9593 19.25L20.1498 22.0569Z" fill="white" stroke="white" stroke-width="0.7"/>
</svg>
