<svg width="28" height="28" viewBox="0 0 28 28" fill="none" xmlns="http://www.w3.org/2000/svg">
<path d="M13.9999 25.6673C20.4432 25.6673 25.6665 20.444 25.6665 14.0007C25.6665 7.55732 20.4432 2.33398 13.9999 2.33398C7.5566 2.33398 2.33325 7.55732 2.33325 14.0007C2.33325 20.444 7.5566 25.6673 13.9999 25.6673Z" fill="#FFA9A9" fill-opacity="0.6" stroke="#FFA9A9" stroke-width="2.5" stroke-miterlimit="10"/>
<path d="M11.0717 14.8638C11.7676 14.8638 12.3317 14.2996 12.3317 13.6038C12.3317 12.9079 11.7676 12.3438 11.0717 12.3438C10.3759 12.3438 9.81177 12.9079 9.81177 13.6038C9.81177 14.2996 10.3759 14.8638 11.0717 14.8638Z" fill="white"/>
<path d="M17.115 14.8638C17.8109 14.8638 18.375 14.2996 18.375 13.6038C18.375 12.9079 17.8109 12.3438 17.115 12.3438C16.4191 12.3438 15.855 12.9079 15.855 13.6038C15.855 14.2996 16.4191 14.8638 17.115 14.8638Z" fill="white"/>
<path d="M11.6084 10.9893L8.48169 13.5793" stroke="white" stroke-width="0.37" stroke-linecap="round" stroke-linejoin="round"/>
<path d="M16.5784 11.0479L19.705 13.6496" stroke="white" stroke-width="0.37" stroke-linecap="round" stroke-linejoin="round"/>
<path d="M10.6985 17.8852C11.6141 17.0937 12.784 16.6582 13.9943 16.6582C15.2046 16.6582 16.3745 17.0937 17.2901 17.8852" stroke="white" stroke-width="0.56" stroke-linecap="round" stroke-linejoin="round"/>
<path d="M6.40495 12.9614H6.12496L6.40495 10.7681H5.41329C5.24996 10.7681 5.24996 10.6747 5.29663 10.5697C5.34329 10.4647 5.29663 10.5697 5.29663 10.5697L6.95329 7.37305H7.23329L6.95329 9.56639H7.94495C8.08495 9.56639 8.09662 9.67139 8.07329 9.72972L6.40495 12.9614Z" fill="white"/>
<rect x="17.0625" y="17.0625" width="7.875" height="7.875" rx="3" fill="#6C6C6C" stroke="white" stroke-width="1.4"/>
<path d="M20.1498 22.0569L19.0435 20.9506L18.6667 21.3247L20.1498 22.8077L23.3334 19.6241L22.9593 19.25L20.1498 22.0569Z" fill="white" stroke="white" stroke-width="0.7"/>
</svg>
