<svg width="27" height="27" viewBox="0 0 27 27" fill="none" xmlns="http://www.w3.org/2000/svg">
<path d="M13.75 25.5C20.2393 25.5 25.5 20.2393 25.5 13.75C25.5 7.26065 20.2393 2 13.75 2C7.26065 2 2 7.26065 2 13.75C2 20.2393 7.26065 25.5 13.75 25.5Z" fill="#F5C1C1" stroke="#FFA9A9" stroke-width="2.5"/>
<path d="M11.765 9.53213C11.765 9.53213 7.62922 9.42081 8.13753 10.532C8.64584 11.6431 21.8178 11.3721 19.1019 10.3219C17.0813 9.52793 15.6845 9.51953 15.6845 9.51953" stroke="white" stroke-linecap="round" stroke-linejoin="round"/>
<path d="M12.1976 11.2527C12.1976 11.2527 8.94826 11.1393 9.35155 12.2504C9.75484 13.3616 20.0996 13.0906 17.9634 12.0404C16.3734 11.2422 15.2769 11.2422 15.2769 11.2422" stroke="white" stroke-linecap="round" stroke-linejoin="round"/>
<path d="M13.7815 8.53027V14.357" stroke="white" stroke-linecap="round" stroke-linejoin="round"/>
<path d="M13.1324 14.6865C13.1324 14.6865 13.7415 15.5813 11.4268 15.2158C9.11212 14.8504 8.49879 14.6466 8.13331 15.7031C7.76782 16.7597 10.4438 20.2339 12.8488 17.6734C12.7417 17.5936 12.5547 19.7507 13.899 19.7528C15.1173 19.7528 14.798 17.6524 14.798 17.6524C17.1842 20.2086 19.7992 16.7597 19.4338 15.7031C19.0683 14.6466 18.4591 14.8483 16.1423 15.2158C13.8255 15.5834 14.4347 14.6865 14.4347 14.6865" fill="white"/>
<path d="M13.1324 14.6865C13.1324 14.6865 13.7415 15.5813 11.4268 15.2158C9.11212 14.8504 8.49879 14.6466 8.13331 15.7031C7.76782 16.7597 10.4438 20.2339 12.8488 17.6734C12.7417 17.5936 12.5547 19.7507 13.899 19.7528C15.1173 19.7528 14.798 17.6524 14.798 17.6524C17.1842 20.2086 19.7992 16.7597 19.4338 15.7031C19.0683 14.6466 18.4591 14.8483 16.1423 15.2158C13.8255 15.5834 14.4347 14.6865 14.4347 14.6865" stroke="white" stroke-linecap="round" stroke-linejoin="round"/>
<path d="M9.76746 16.8391C10.0644 16.8391 10.3051 16.5984 10.3051 16.3014C10.3051 16.0044 10.0644 15.7637 9.76746 15.7637C9.47048 15.7637 9.22974 16.0044 9.22974 16.3014C9.22974 16.5984 9.47048 16.8391 9.76746 16.8391Z" fill="#F6BEC8"/>
<path d="M17.7829 16.8391C18.0798 16.8391 18.3206 16.5984 18.3206 16.3014C18.3206 16.0044 18.0798 15.7637 17.7829 15.7637C17.4859 15.7637 17.2451 16.0044 17.2451 16.3014C17.2451 16.5984 17.4859 16.8391 17.7829 16.8391Z" fill="#F6BEC8"/>
<path d="M20.5744 20.39H20.3875L20.5744 18.9743H19.9254C19.8182 18.9743 19.8182 18.9092 19.8539 18.842C19.8896 18.7748 19.8539 18.8252 19.8665 18.8168L20.9441 16.752H21.1289L20.9441 18.172H21.5931C21.6834 18.172 21.696 18.2392 21.6792 18.2749L21.6666 18.3064C20.9357 19.6927 20.5744 20.39 20.5744 20.39Z" fill="white"/>
<rect x="16.0625" y="16.0625" width="7.875" height="7.875" rx="3" fill="#6C6C6C" stroke="white" stroke-width="1.4"/>
<path d="M19.1498 21.0569L18.0435 19.9506L17.6667 20.3247L19.1498 21.8077L22.3334 18.6241L21.9593 18.25L19.1498 21.0569Z" fill="white" stroke="white" stroke-width="0.7"/>
</svg>
