<svg width="32" height="32" viewBox="0 0 32 32" fill="none" xmlns="http://www.w3.org/2000/svg">
<path d="M16 28C22.6274 28 28 22.6274 28 16C28 9.37258 22.6274 4 16 4C9.37258 4 4 9.37258 4 16C4 22.6274 9.37258 28 16 28Z" fill="white" stroke="#F2F2F2"/>
<circle cx="16" cy="16" r="7.75" stroke="#A8AAB0" stroke-width="2" stroke-linecap="round"/>
<path d="M13.8349 17.25C14.0544 17.63 14.37 17.9456 14.75 18.1651C15.13 18.3845 15.5612 18.5 16 18.5C16.4388 18.5 16.87 18.3845 17.25 18.1651C17.63 17.9456 17.9456 17.63 18.1651 17.25" stroke="#A8AAB0" stroke-width="2" stroke-linecap="round"/>
<rect x="12.125" y="12.875" width="2.5" height="1.75" rx="0.875" fill="#A8AAB0" stroke="#A8AAB0" stroke-width="0.25" stroke-linecap="round"/>
<rect x="17.375" y="12.875" width="2.5" height="1.75" rx="0.875" fill="#A8AAB0" stroke="#A8AAB0" stroke-width="0.25" stroke-linecap="round"/>
</svg>
