<svg width="32" height="32" viewBox="0 0 32 32" fill="none" xmlns="http://www.w3.org/2000/svg">
<path d="M16 28C22.6274 28 28 22.6274 28 16C28 9.37258 22.6274 4 16 4C9.37258 4 4 9.37258 4 16C4 22.6274 9.37258 28 16 28Z" fill="#D4C1DD"/>
<circle cx="16" cy="16" r="7.75" stroke="#90739E" stroke-width="2" stroke-linecap="round"/>
<circle cx="13.75" cy="13.75" r="1" fill="#90739E" stroke="#90739E" stroke-width="0.5" stroke-linecap="round"/>
<circle cx="18.25" cy="13.75" r="1" fill="#90739E" stroke="#90739E" stroke-width="0.5" stroke-linecap="round"/>
<path d="M18.25 18.625C18.25 19.6605 17.2426 20.5 16 20.5C14.7574 20.5 13.75 19.6605 13.75 18.625C13.75 17.5895 14.7574 16.75 16 16.75C17.2426 16.75 18.25 17.5895 18.25 18.625Z" fill="#90739E"/>
</svg>
