<svg width="32" height="32" viewBox="0 0 32 32" fill="none" xmlns="http://www.w3.org/2000/svg">
<path d="M16 28C22.6274 28 28 22.6274 28 16C28 9.37258 22.6274 4 16 4C9.37258 4 4 9.37258 4 16C4 22.6274 9.37258 28 16 28Z" fill="#D3EBF4"/>
<circle cx="16" cy="16" r="7.75" stroke="#7FA1AE" stroke-width="2" stroke-linecap="round"/>
<path d="M12.7473 18.9941C13.1522 18.6434 13.6751 18.3983 14.2227 18.2402C14.7781 18.0798 15.3897 18 16 18C16.6103 18 17.2219 18.0798 17.7774 18.2402C18.3249 18.3983 18.8478 18.6434 19.2527 18.9941" stroke="#7FA1AE" stroke-width="2" stroke-linecap="round"/>
<mask id="path-4-outside-1_1420_1843" maskUnits="userSpaceOnUse" x="12" y="13" width="3" height="2" fill="black">
<rect fill="white" x="12" y="13" width="3" height="2"/>
<path d="M14 13.75C14.2307 13.75 14.346 13.75 14.4144 13.8908C14.4828 14.0316 14.435 14.0923 14.3394 14.2138C14.3211 14.237 14.3014 14.2592 14.2803 14.2803C14.1397 14.421 13.9489 14.5 13.75 14.5C13.5511 14.5 13.3603 14.421 13.2197 14.2803C13.1986 14.2592 13.1789 14.237 13.1606 14.2138C13.065 14.0923 13.0172 14.0316 13.0856 13.8908C13.154 13.75 13.2693 13.75 13.5 13.75L13.75 13.75H14Z"/>
</mask>
<path d="M14 13.75C14.2307 13.75 14.346 13.75 14.4144 13.8908C14.4828 14.0316 14.435 14.0923 14.3394 14.2138C14.3211 14.237 14.3014 14.2592 14.2803 14.2803C14.1397 14.421 13.9489 14.5 13.75 14.5C13.5511 14.5 13.3603 14.421 13.2197 14.2803C13.1986 14.2592 13.1789 14.237 13.1606 14.2138C13.065 14.0923 13.0172 14.0316 13.0856 13.8908C13.154 13.75 13.2693 13.75 13.5 13.75L13.75 13.75H14Z" fill="#7FA1AE"/>
<path d="M14 13.75C14.2307 13.75 14.346 13.75 14.4144 13.8908C14.4828 14.0316 14.435 14.0923 14.3394 14.2138C14.3211 14.237 14.3014 14.2592 14.2803 14.2803C14.1397 14.421 13.9489 14.5 13.75 14.5C13.5511 14.5 13.3603 14.421 13.2197 14.2803C13.1986 14.2592 13.1789 14.237 13.1606 14.2138C13.065 14.0923 13.0172 14.0316 13.0856 13.8908C13.154 13.75 13.2693 13.75 13.5 13.75L13.75 13.75H14Z" stroke="#7FA1AE" stroke-linecap="round" mask="url(#path-4-outside-1_1420_1843)"/>
<mask id="path-5-outside-2_1420_1843" maskUnits="userSpaceOnUse" x="16.5" y="13" width="3" height="2" fill="black">
<rect fill="white" x="16.5" y="13" width="3" height="2"/>
<path d="M18.5 13.75C18.7307 13.75 18.846 13.75 18.9144 13.8908C18.9828 14.0316 18.935 14.0923 18.8394 14.2138C18.8211 14.237 18.8014 14.2592 18.7803 14.2803C18.6397 14.421 18.4489 14.5 18.25 14.5C18.0511 14.5 17.8603 14.421 17.7197 14.2803C17.6986 14.2592 17.6789 14.237 17.6606 14.2138C17.565 14.0923 17.5172 14.0316 17.5856 13.8908C17.654 13.75 17.7693 13.75 18 13.75L18.25 13.75H18.5Z"/>
</mask>
<path d="M18.5 13.75C18.7307 13.75 18.846 13.75 18.9144 13.8908C18.9828 14.0316 18.935 14.0923 18.8394 14.2138C18.8211 14.237 18.8014 14.2592 18.7803 14.2803C18.6397 14.421 18.4489 14.5 18.25 14.5C18.0511 14.5 17.8603 14.421 17.7197 14.2803C17.6986 14.2592 17.6789 14.237 17.6606 14.2138C17.565 14.0923 17.5172 14.0316 17.5856 13.8908C17.654 13.75 17.7693 13.75 18 13.75L18.25 13.75H18.5Z" fill="#7FA1AE"/>
<path d="M18.5 13.75C18.7307 13.75 18.846 13.75 18.9144 13.8908C18.9828 14.0316 18.935 14.0923 18.8394 14.2138C18.8211 14.237 18.8014 14.2592 18.7803 14.2803C18.6397 14.421 18.4489 14.5 18.25 14.5C18.0511 14.5 17.8603 14.421 17.7197 14.2803C17.6986 14.2592 17.6789 14.237 17.6606 14.2138C17.565 14.0923 17.5172 14.0316 17.5856 13.8908C17.654 13.75 17.7693 13.75 18 13.75L18.25 13.75H18.5Z" stroke="#7FA1AE" stroke-linecap="round" mask="url(#path-5-outside-2_1420_1843)"/>
</svg>
