<svg width="32" height="32" viewBox="0 0 32 32" fill="none" xmlns="http://www.w3.org/2000/svg">
<path d="M16 28C22.6274 28 28 22.6274 28 16C28 9.37258 22.6274 4 16 4C9.37258 4 4 9.37258 4 16C4 22.6274 9.37258 28 16 28Z" fill="#ECA8C4"/>
<circle cx="16" cy="16" r="7.75" stroke="#C16289" stroke-width="2" stroke-linecap="round"/>
<path d="M12.7473 18.9941C13.1522 18.6434 13.6751 18.3983 14.2227 18.2402C14.7781 18.0798 15.3897 18 16 18C16.6103 18 17.2219 18.0798 17.7774 18.2402C18.3249 18.3983 18.8478 18.6434 19.2527 18.9941" stroke="#C16289" stroke-width="2" stroke-linecap="round"/>
<path d="M17 13C17.2284 13.3318 17.5366 13.5809 17.8797 13.7471C18.2255 13.9145 18.6114 14 19 14" stroke="#C16289" stroke-width="1.5" stroke-linecap="round"/>
<path d="M15 13C14.7716 13.3318 14.4634 13.5809 14.1203 13.7471C13.7745 13.9145 13.3886 14 13 14" stroke="#C16289" stroke-width="1.5" stroke-linecap="round"/>
</svg>
