<svg width="32" height="32" viewBox="0 0 32 32" fill="none" xmlns="http://www.w3.org/2000/svg">
<path d="M16 28C22.6274 28 28 22.6274 28 16C28 9.37258 22.6274 4 16 4C9.37258 4 4 9.37258 4 16C4 22.6274 9.37258 28 16 28Z" fill="#D7D5EA"/>
<circle cx="16" cy="16" r="7.75" stroke="#9490B9" stroke-width="2" stroke-linecap="round"/>
<circle cx="13.75" cy="13.75" r="1" fill="#9490B9" stroke="#9490B9" stroke-width="0.5" stroke-linecap="round"/>
<circle cx="18.25" cy="13.75" r="1" fill="#9490B9" stroke="#9490B9" stroke-width="0.5" stroke-linecap="round"/>
<path d="M18 19C18 20.1046 17.1046 21 16 21C14.8954 21 14 20.1046 14 19C14 17.8954 14.8954 17 16 17C17.1046 17 18 17.8954 18 19Z" fill="#9490B9"/>
<path d="M17 13C17.583 13 18.1618 13.0855 18.6805 13.2529C19.1951 13.4191 19.6574 13.6682 20 14" stroke="#9490B9" stroke-width="1.5" stroke-linecap="round"/>
<path d="M15 13C14.417 13 13.8382 13.0855 13.3195 13.2529C12.8049 13.4191 12.3426 13.6682 12 14" stroke="#9490B9" stroke-width="1.5" stroke-linecap="round"/>
</svg>
