<svg width="32" height="32" viewBox="0 0 32 32" fill="none" xmlns="http://www.w3.org/2000/svg">
<path d="M16 28C22.6274 28 28 22.6274 28 16C28 9.37258 22.6274 4 16 4C9.37258 4 4 9.37258 4 16C4 22.6274 9.37258 28 16 28Z" fill="#FBF4D8"/>
<circle cx="16" cy="16" r="7.75" stroke="#EACC56" stroke-width="2" stroke-linecap="round"/>
<path d="M12 17.4444C12 17.199 12.199 17 12.4444 17H19.5556C19.801 17 20 17.199 20 17.4444C20 19.4081 18.4081 21 16.4444 21H15.5556C13.5919 21 12 19.4081 12 17.4444Z" fill="#EACC56"/>
<path d="M12.4466 15.151C12.3249 15.3488 12 15.3217 12 15.0894C12 13.7244 12.6716 13 13.5 13C14.3284 13 15 13.7244 15 15.0894C15 15.3217 14.6751 15.3488 14.5534 15.151C14.2825 14.7107 13.9105 14.439 13.5 14.439C13.0895 14.439 12.7175 14.7107 12.4466 15.151Z" fill="#EACC56"/>
<path d="M17.4466 15.151C17.3249 15.3488 17 15.3217 17 15.0894C17 13.7244 17.6716 13 18.5 13C19.3284 13 20 13.7244 20 15.0894C20 15.3217 19.6751 15.3488 19.5534 15.151C19.2825 14.7107 18.9105 14.439 18.5 14.439C18.0895 14.439 17.7175 14.7107 17.4466 15.151Z" fill="#EACC56"/>
</svg>
