<svg width="27" height="27" viewBox="0 0 27 27" fill="none" xmlns="http://www.w3.org/2000/svg">
<g id="&#235;&#160;&#136;&#236;&#157;&#180;&#236;&#150;&#180; 2">
<g id="&#235;&#160;&#136;&#236;&#157;&#180;&#236;&#150;&#180; 1">
<path id="Vector" d="M13.75 25.5C20.2393 25.5 25.5 20.2393 25.5 13.75C25.5 7.26065 20.2393 2 13.75 2C7.26065 2 2 7.26065 2 13.75C2 20.2393 7.26065 25.5 13.75 25.5Z" fill="#F5C1C1" stroke="#FFA9A9" stroke-width="2.5"/>
<path id="Vector_2" d="M11.2008 10.1455C11.2008 10.1455 5.64297 9.99424 6.32562 11.4877C7.00827 12.9811 24.7089 12.6282 21.0583 11.1978C18.3424 10.1308 16.4667 10.1182 16.4667 10.1182" stroke="white" stroke-width="1.2" stroke-linecap="round" stroke-linejoin="round"/>
<path id="Vector_3" d="M11.5138 12.4753C11.5138 12.4753 6.60083 12.3429 7.20367 13.662C7.8065 14.9811 23.4592 14.6723 20.2266 13.4058C17.8257 12.4627 16.1664 12.4521 16.1664 12.4521" stroke="white" stroke-width="1.2" stroke-linecap="round" stroke-linejoin="round"/>
<path id="Vector_4" d="M11.5453 14.5357C11.5453 14.5357 7.13428 14.4159 7.6762 15.6006C8.21812 16.7853 22.2744 16.508 19.3674 15.3716C17.2123 14.5315 15.7231 14.5146 15.7231 14.5146" stroke="white" stroke-width="1.2" stroke-linecap="round" stroke-linejoin="round"/>
<path id="Vector_5" d="M12.0053 16.3696C12.0053 16.3696 8.54168 16.2499 8.96807 17.4346C9.39446 18.6192 20.4261 18.3399 18.1513 17.2035C16.4583 16.3633 15.2884 16.3486 15.2884 16.3486" stroke="white" stroke-width="1.2" stroke-linecap="round" stroke-linejoin="round"/>
<path id="Vector_6" d="M13.65 9.5542V19.8087" stroke="white" stroke-width="1.5" stroke-linecap="round" stroke-linejoin="round"/>
<path id="Vector_7" d="M20.4743 20.4343H20.2874L20.4743 19.0144H19.8253C19.7181 19.0144 19.7181 18.9493 19.7538 18.88C19.7895 18.8107 19.7538 18.8632 19.7664 18.8569C20.0059 18.3948 20.3651 17.7079 20.844 16.79H21.0288L20.844 18.2058H21.493C21.5833 18.2058 21.5959 18.2709 21.5791 18.3087L21.5665 18.3381C20.8356 19.737 20.4743 20.4343 20.4743 20.4343Z" fill="white"/>
</g>
</g>
</svg>
