<svg width="267" height="95" viewBox="0 0 267 95" fill="none" xmlns="http://www.w3.org/2000/svg">
<g clip-path="url(#clip0_1326_1925)">
<g filter="url(#filter0_d_1326_1925)">
<path d="M210.743 75.2158L228.281 75.6418C231.141 75.639 233.973 75.147 236.615 74.1939C239.256 73.2408 241.656 71.8453 243.676 70.087C245.696 68.3287 247.298 66.242 248.39 63.9462C249.481 61.6504 250.042 59.1904 250.038 56.7065V31.9565C250.045 29.4709 249.487 27.0086 248.397 24.7103C247.307 22.412 245.705 20.3229 243.685 18.5624C241.664 16.8018 239.263 15.4043 236.62 14.4499C233.977 13.4955 231.144 13.0028 228.281 13H36.7574C33.8953 13.0042 31.0623 13.4978 28.4199 14.4528C25.7776 15.4077 23.3777 16.8052 21.3574 18.5655C19.337 20.3257 17.7357 22.4143 16.6449 24.712C15.5541 27.0096 14.9952 29.4713 15 31.9565V56.7065C15 61.7191 17.2915 66.5267 21.3711 70.0732C25.4507 73.6196 30.9847 75.6148 36.7574 75.6205L197.975 75.1945L202.881 83.7143L210.743 75.2158Z" fill="white"/>
</g>
<g filter="url(#filter1_d_1326_1925)">
<path d="M210.743 75.2158L228.281 75.6418C231.141 75.639 233.973 75.147 236.615 74.1939C239.256 73.2408 241.656 71.8453 243.676 70.087C245.696 68.3287 247.298 66.242 248.39 63.9462C249.481 61.6504 250.042 59.1904 250.038 56.7065V31.9565C250.045 29.4709 249.487 27.0086 248.397 24.7103C247.307 22.412 245.705 20.3229 243.685 18.5624C241.664 16.8018 239.263 15.4043 236.62 14.4499C233.977 13.4955 231.144 13.0028 228.281 13H36.7574C33.8953 13.0042 31.0623 13.4978 28.4199 14.4528C25.7776 15.4077 23.3777 16.8052 21.3574 18.5655C19.337 20.3257 17.7357 22.4143 16.6449 24.712C15.5541 27.0096 14.9952 29.4713 15 31.9565V56.7065C15 61.7191 17.2915 66.5267 21.3711 70.0732C25.4507 73.6196 30.9847 75.6148 36.7574 75.6205L197.975 75.1945L202.881 83.7143L210.743 75.2158Z" stroke="#DBD4CF" stroke-miterlimit="10"/>
</g>
</g>
<defs>
<filter id="filter0_d_1326_1925" x="11" y="9" width="243.039" height="78.7144" filterUnits="userSpaceOnUse" color-interpolation-filters="sRGB">
<feFlood flood-opacity="0" result="BackgroundImageFix"/>
<feColorMatrix in="SourceAlpha" type="matrix" values="0 0 0 0 0 0 0 0 0 0 0 0 0 0 0 0 0 0 127 0" result="hardAlpha"/>
<feOffset/>
<feGaussianBlur stdDeviation="2"/>
<feColorMatrix type="matrix" values="0 0 0 0 0 0 0 0 0 0 0 0 0 0 0 0 0 0 0.25 0"/>
<feBlend mode="normal" in2="BackgroundImageFix" result="effect1_dropShadow_1326_1925"/>
<feBlend mode="normal" in="SourceGraphic" in2="effect1_dropShadow_1326_1925" result="shape"/>
</filter>
<filter id="filter1_d_1326_1925" x="7.5" y="5.5" width="250.039" height="86.0527" filterUnits="userSpaceOnUse" color-interpolation-filters="sRGB">
<feFlood flood-opacity="0" result="BackgroundImageFix"/>
<feColorMatrix in="SourceAlpha" type="matrix" values="0 0 0 0 0 0 0 0 0 0 0 0 0 0 0 0 0 0 127 0" result="hardAlpha"/>
<feOffset/>
<feGaussianBlur stdDeviation="3.5"/>
<feColorMatrix type="matrix" values="0 0 0 0 0 0 0 0 0 0 0 0 0 0 0 0 0 0 0.25 0"/>
<feBlend mode="normal" in2="BackgroundImageFix" result="effect1_dropShadow_1326_1925"/>
<feBlend mode="normal" in="SourceGraphic" in2="effect1_dropShadow_1326_1925" result="shape"/>
</filter>
<clipPath id="clip0_1326_1925">
<rect width="267" height="95" fill="white"/>
</clipPath>
</defs>
</svg>
