<svg width="18" height="18" viewBox="0 0 18 18" fill="none" xmlns="http://www.w3.org/2000/svg">
<path d="M18 0H2.25V18H18V0Z" fill="#FFA9A9"/>
<path d="M4.95511 12.7363H0" stroke="#FFE5E5" stroke-width="2" stroke-miterlimit="10"/>
<path d="M4.95511 5.83691H0" stroke="#FFE5E5" stroke-width="2" stroke-miterlimit="10"/>
<path d="M12.5186 7.20567C12.2314 7.07027 11.9116 6.99978 11.5871 7.00033C11.3105 6.99997 11.0372 7.05279 10.7854 7.15521C10.5336 7.25763 10.3092 7.40728 10.1275 7.59404C9.83764 7.29813 9.44466 7.09872 9.01238 7.02821C8.5801 6.95771 8.13391 7.02025 7.74631 7.20567C7.44932 7.3394 7.19921 7.5439 7.02345 7.79669C6.84768 8.04948 6.75307 8.34079 6.75 8.63862C6.75068 8.81026 6.78265 8.98064 6.84465 9.14305C7.16845 10.4064 9.25073 12 10.1175 12C10.9843 12 13.0815 10.4108 13.4053 9.14305C13.469 8.97639 13.5009 8.80136 13.5 8.62522C13.4951 8.33118 13.4012 8.04384 13.2284 7.79384C13.0555 7.54384 12.8102 7.34056 12.5186 7.20567Z" fill="white"/>
</svg>
