<svg xmlns="http://www.w3.org/2000/svg" viewBox="0 0 111.88 111.88"><defs><style>.cls-1{fill:#f6bec8;}.cls-2,.cls-3,.cls-4{fill:none;}.cls-2,.cls-3,.cls-4,.cls-5{stroke:#fff;stroke-linecap:round;stroke-linejoin:round;}.cls-2{stroke-width:4.52px;}.cls-3{stroke-width:4.01px;}.cls-4{stroke-width:3.95px;}.cls-5,.cls-6{fill:#fff;}.cls-5{stroke-width:2.53px;}</style></defs><title>치골통자산 2</title><g id="레이어_2" data-name="레이어 2"><g id="레이어_1-2" data-name="레이어 1"><circle class="cls-1" cx="55.94" cy="55.94" r="55.94"/><path class="cls-2" d="M46.49,35.86s-19.69-.53-17.27,4.76,65.13,4,52.2-1c-9.62-3.78-16.27-3.82-16.27-3.82"/><path class="cls-3" d="M48.55,44.05S33.08,43.51,35,48.8s51.17,4,41-1C68.43,44,63.21,44,63.21,44"/><line class="cls-4" x1="56.09" y1="31.09" x2="56.09" y2="58.83"/><path class="cls-5" d="M53,60.4s2.9,4.26-8.12,2.52-13.94-2.71-15.68,2.32,11,21.57,22.45,9.38c-.51-.38-1.4,9.89,5,9.9,5.8,0,4.28-10,4.28-10C72.29,86.69,84.74,70.27,83,65.24s-4.64-4.07-15.67-2.32-8.13-2.52-8.13-2.52"/><circle class="cls-1" cx="36.98" cy="68.09" r="2.56"/><circle class="cls-1" cx="75.14" cy="68.09" r="2.56"/><path class="cls-6" d="M88.43,83.56h-.89l.89-6.74H85.34c-.51,0-.51-.31-.34-.63s0-.08.06-.12l5.13-9.83h.88L90.19,73h3.09c.43,0,.49.32.41.49l-.06.15C90.15,80.24,88.43,83.56,88.43,83.56Z"/></g></g></svg>