<svg xmlns="http://www.w3.org/2000/svg" viewBox="0 0 111.88 111.88"><defs><style>.cls-1{fill:#f6bec8;}.cls-2,.cls-3,.cls-4,.cls-5{fill:none;stroke:#fff;stroke-linecap:round;stroke-linejoin:round;}.cls-2{stroke-width:6.07px;}.cls-3{stroke-width:5.37px;}.cls-4{stroke-width:4.82px;}.cls-5{stroke-width:4.27px;}.cls-6{fill:#fff;}</style></defs><title>갈비뼈통증자산 1</title><g id="레이어_2" data-name="레이어 2"><g id="레이어_1-2" data-name="레이어 1"><circle class="cls-1" cx="55.94" cy="55.94" r="55.94"/><path class="cls-2" d="M44.28,40.78s-26.46-.72-23.21,6.39,87.52,5.43,70.14-1.38c-12.93-5.08-21.86-5.14-21.86-5.14"/><path class="cls-3" d="M45.77,51.87s-23.39-.63-20.52,5.65,77.39,4.81,62-1.22c-11.43-4.49-19.33-4.54-19.33-4.54"/><path class="cls-4" d="M45.92,61.68s-21-.57-18.42,5.07S97,71.07,83.16,65.66c-10.26-4-17.35-4.08-17.35-4.08"/><path class="cls-5" d="M48.11,70.41s-16.49-.57-14.46,5.07,54.55,4.31,43.72-1.1c-8.06-4-13.63-4.07-13.63-4.07"/><line class="cls-2" x1="56.15" y1="37.35" x2="56.15" y2="86.17"/><path class="cls-6" d="M88.43,87.76h-.89L88.43,81H85.34c-.51,0-.51-.31-.34-.64s0-.08.06-.11c1.14-2.2,2.85-5.47,5.13-9.84h.88l-.88,6.74h3.09c.43,0,.49.31.41.49l-.06.14C90.15,84.44,88.43,87.76,88.43,87.76Z"/></g></g></svg>