<svg width="78" height="35" viewBox="0 0 78 35" fill="none" xmlns="http://www.w3.org/2000/svg">
<g clip-path="url(#clip0_1311_1884)">
<path d="M54.453 6H21.547C15.1698 6 10 10.9939 10 17.1543V18.8457C10 25.0061 15.1698 30 21.547 30H54.453C60.8302 30 66 25.0061 66 18.8457V17.1543C66 10.9939 60.8302 6 54.453 6Z" fill="#3F3A5E"/>
<path d="M21.2816 14.6997V20.8397H25.7116V14.6997H21.2816ZM24.4016 15.7397V19.7897H22.5916V15.7397H24.4016ZM26.9216 13.8297V23.0897H28.2616V13.8297H26.9216ZM27.9616 17.3197V18.4197H29.6016V17.3197H27.9616ZM36.5508 13.8197V23.1097H37.8908V13.8197H36.5508ZM32.9008 14.4697C31.5008 14.4697 30.4708 15.7497 30.4708 17.7697C30.4708 19.8097 31.5008 21.0897 32.9008 21.0897C34.3008 21.0897 35.3308 19.8097 35.3308 17.7697C35.3308 15.7497 34.3008 14.4697 32.9008 14.4697ZM32.9008 15.6797C33.5908 15.6797 34.0508 16.4097 34.0508 17.7697C34.0508 19.1497 33.5908 19.8897 32.9008 19.8897C32.2108 19.8897 31.7408 19.1497 31.7408 17.7697C31.7408 16.4097 32.2108 15.6797 32.9008 15.6797ZM39.66 14.7797V20.7797H43.32V14.7797H39.66ZM42.08 15.8197V19.7397H40.9V15.8197H42.08ZM46.09 13.8297V23.0897H47.36V13.8297H46.09ZM42.65 17.1897V18.2597H44.73V17.1897H42.65ZM44.2 13.9697V22.6697H45.45V13.9697H44.2ZM49.6093 16.7397V17.7997H56.0493V16.7397H49.6093ZM49.6093 14.2497V17.2197H50.9393V14.2497H49.6093ZM48.6093 18.8197V19.8897H56.9793V18.8197H48.6093ZM50.5093 19.1997V23.0897H51.8393V19.1997H50.5093ZM53.7393 19.1997V23.0897H55.0693V19.1997H53.7393Z" fill="white"/>
</g>
<defs>
<clipPath id="clip0_1311_1884">
<rect width="78" height="35" fill="white"/>
</clipPath>
</defs>
</svg>
