<svg width="18" height="18" viewBox="0 0 18 18" fill="none" xmlns="http://www.w3.org/2000/svg">
<g clip-path="url(#clip0_1316_1244)">
<path d="M2.03256 0H15.9648C16.5039 0 17.0209 0.190558 17.402 0.529753C17.7832 0.868949 17.9974 1.329 17.9974 1.80869V8.54078H0V1.80869C0 1.329 0.214144 0.868949 0.595322 0.529753C0.9765 0.190558 1.49349 0 2.03256 0Z" fill="#989898"/>
<path d="M15.9647 17.998H2.03255C1.49348 17.998 0.976461 17.8075 0.595284 17.4683C0.214106 17.1291 -6.29425e-05 16.669 -6.29425e-05 16.1893V9.4573L18 9.4573V16.1823C18.001 16.4206 17.9491 16.6567 17.8472 16.8771C17.7454 17.0975 17.5956 17.2979 17.4065 17.4667C17.2174 17.6354 16.9927 17.7692 16.7452 17.8604C16.4978 17.9516 16.2325 17.9984 15.9647 17.998Z" fill="#989898"/>
<path d="M11.5723 3.96484H6.51465V5.02422H11.5723V3.96484Z" fill="white"/>
<path d="M11.5723 12.6611H6.51465V13.7205H11.5723V12.6611Z" fill="white"/>
</g>
<defs>
<clipPath id="clip0_1316_1244">
<rect width="18" height="18" fill="white"/>
</clipPath>
</defs>
</svg>
