<svg width="18" height="18" viewBox="0 0 18 18" fill="none" xmlns="http://www.w3.org/2000/svg">
<path opacity="0.3" d="M1.63647 5.73254V14.8804C2.5692 14.5019 3.52648 14.3081 4.50011 14.3081C5.47375 14.3081 6.43102 14.5019 7.36375 14.8804V5.74177C6.45557 5.30792 5.48193 5.07715 4.50011 5.07715C3.50193 5.07715 2.54466 5.29869 1.63647 5.73254Z" fill="#EDEDED"/>
<path d="M14.7274 0L10.6365 4.61546V13.3848L14.7274 9.23092V0Z" fill="#989898"/>
<path d="M17.5664 4.33818C17.1818 4.11664 16.7809 3.93202 16.3636 3.77509V14.8799C15.4309 14.5014 14.4736 14.3076 13.5 14.3076C11.9455 14.3076 10.4073 14.806 9 15.7661V4.59665C7.67455 3.73817 6.14455 3.23047 4.5 3.23047C3.03545 3.23047 1.65273 3.63663 0.433636 4.33818C0.163636 4.48587 0 4.80896 0 5.1505V16.3015C0 16.8369 0.384545 17.2153 0.818182 17.2153C0.949091 17.2153 1.08 17.1784 1.21091 17.1045C2.20091 16.523 3.31364 16.1538 4.5 16.1538C6.19364 16.1538 7.75636 16.9107 9 17.9999C10.2436 16.9107 11.8064 16.1538 13.5 16.1538C14.6864 16.1538 15.7991 16.523 16.7891 17.1138C16.92 17.1876 17.0509 17.2245 17.1818 17.2245C17.6073 17.2245 18 16.8461 18 16.3107V5.1505C18 4.80896 17.8364 4.48587 17.5664 4.33818ZM7.36364 14.8799C6.43091 14.5014 5.47364 14.3076 4.5 14.3076C3.52636 14.3076 2.56909 14.5014 1.63636 14.8799V5.73205C2.54455 5.2982 3.50182 5.07665 4.5 5.07665C5.48182 5.07665 6.45545 5.30743 7.36364 5.74128V14.8799Z" fill="#989898"/>
</svg>
