<svg width="82" height="81" viewBox="0 0 82 81" fill="none" xmlns="http://www.w3.org/2000/svg">
<g filter="url(#filter0_d_1361_2839)">
<g filter="url(#filter1_d_1361_2839)">
<circle cx="41" cy="41" r="30" fill="white"/>
<circle cx="41" cy="41" r="25" fill="#FFA9A9"/>
<path d="M41 43.1579C43.1343 43.1579 44.8443 41.4653 44.8443 39.3684L44.8571 31.7895C44.8571 29.6926 43.1343 28 41 28C38.8657 28 37.1429 29.6926 37.1429 31.7895V39.3684C37.1429 41.4653 38.8657 43.1579 41 43.1579ZM47.8143 39.3684C47.8143 43.1579 44.5486 45.8105 41 45.8105C37.4514 45.8105 34.1857 43.1579 34.1857 39.3684H32C32 43.6758 35.4971 47.2379 39.7143 47.8568V52H42.2857V47.8568C46.5029 47.2505 50 43.6884 50 39.3684H47.8143Z" fill="white"/>
<path d="M34 52H48" stroke="white" stroke-width="2"/>
</g>
</g>
<defs>
<filter id="filter0_d_1361_2839" x="-4" y="-4" width="90" height="89" filterUnits="userSpaceOnUse" color-interpolation-filters="sRGB">
<feFlood flood-opacity="0" result="BackgroundImageFix"/>
<feColorMatrix in="SourceAlpha" type="matrix" values="0 0 0 0 0 0 0 0 0 0 0 0 0 0 0 0 0 0 127 0" result="hardAlpha"/>
<feOffset/>
<feGaussianBlur stdDeviation="2"/>
<feComposite in2="hardAlpha" operator="out"/>
<feColorMatrix type="matrix" values="0 0 0 0 0 0 0 0 0 0 0 0 0 0 0 0 0 0 0.25 0"/>
<feBlend mode="normal" in2="BackgroundImageFix" result="effect1_dropShadow_1361_2839"/>
<feBlend mode="normal" in="SourceGraphic" in2="effect1_dropShadow_1361_2839" result="shape"/>
</filter>
<filter id="filter1_d_1361_2839" x="6" y="6" width="70" height="70" filterUnits="userSpaceOnUse" color-interpolation-filters="sRGB">
<feFlood flood-opacity="0" result="BackgroundImageFix"/>
<feColorMatrix in="SourceAlpha" type="matrix" values="0 0 0 0 0 0 0 0 0 0 0 0 0 0 0 0 0 0 127 0" result="hardAlpha"/>
<feOffset/>
<feGaussianBlur stdDeviation="2.5"/>
<feColorMatrix type="matrix" values="0 0 0 0 0 0 0 0 0 0 0 0 0 0 0 0 0 0 0.25 0"/>
<feBlend mode="normal" in2="BackgroundImageFix" result="effect1_dropShadow_1361_2839"/>
<feBlend mode="normal" in="SourceGraphic" in2="effect1_dropShadow_1361_2839" result="shape"/>
</filter>
</defs>
</svg>
