<svg width="40" height="40" viewBox="0 0 40 40" fill="none" xmlns="http://www.w3.org/2000/svg">
<path d="M11.7481 27.211V33.553H12.3361V27.211H11.7481ZM12.1961 29.71V30.2H13.3721V29.71H12.1961ZM7.73709 31.488V31.978H8.23409C9.42409 31.978 10.2571 31.943 11.2301 31.761L11.1671 31.271C10.2221 31.446 9.40309 31.488 8.23409 31.488H7.73709ZM7.73709 27.827V31.705H8.31109V28.303H10.6771V27.827H7.73709ZM18.5025 27.211V33.553H19.0835V27.211H18.5025ZM15.7445 27.701C14.8135 27.701 14.1415 28.562 14.1415 29.906C14.1415 31.257 14.8135 32.118 15.7445 32.118C16.6825 32.118 17.3545 31.257 17.3545 29.906C17.3545 28.562 16.6825 27.701 15.7445 27.701ZM15.7445 28.226C16.3675 28.226 16.7945 28.884 16.7945 29.906C16.7945 30.935 16.3675 31.607 15.7445 31.607C15.1285 31.607 14.6945 30.935 14.6945 29.906C14.6945 28.884 15.1285 28.226 15.7445 28.226ZM22.037 27.701C21.113 27.701 20.462 28.562 20.462 29.906C20.462 31.257 21.113 32.118 22.037 32.118C22.954 32.118 23.612 31.257 23.612 29.906C23.612 28.562 22.954 27.701 22.037 27.701ZM22.037 28.226C22.646 28.226 23.059 28.884 23.059 29.906C23.059 30.935 22.646 31.607 22.037 31.607C21.428 31.607 21.015 30.935 21.015 29.906C21.015 28.884 21.428 28.226 22.037 28.226ZM24.984 27.211V33.553H25.558V27.211H24.984ZM23.423 29.626V30.102H25.236V29.626H23.423ZM31.3955 27.211V33.553H31.9765V27.211H31.3955ZM27.1535 31.544V32.027H27.6785C28.7635 32.027 29.7155 31.985 30.8635 31.796L30.8005 31.32C29.6805 31.502 28.7355 31.544 27.6785 31.544H27.1535ZM27.1395 27.806V28.282H29.4775V29.591H27.1535V31.726H27.7345V30.067H30.0655V27.806H27.1395Z" fill="#FFA9A9"/>
<path d="M27 5H13V23H27V5Z" fill="#FFA9A9"/>
<path d="M15.4045 17.7358H11" stroke="#FFE5E5" stroke-width="2" stroke-miterlimit="10"/>
<path d="M15.4045 10.8364H11" stroke="#FFE5E5" stroke-width="2" stroke-miterlimit="10"/>
<path d="M22.1277 12.2057C21.8724 12.0703 21.5881 11.9998 21.2996 12.0003C21.0538 12 20.8108 12.0528 20.587 12.1552C20.3632 12.2576 20.1637 12.4073 20.0022 12.594C19.7446 12.2981 19.3953 12.0987 19.011 12.0282C18.6268 11.9577 18.2301 12.0202 17.8856 12.2057C17.6216 12.3394 17.3993 12.5439 17.2431 12.7967C17.0868 13.0495 17.0027 13.3408 17 13.6386C17.0006 13.8103 17.029 13.9806 17.0841 14.143C17.372 15.4064 19.2229 17 19.9933 17C20.7638 17 22.628 15.4108 22.9158 14.143C22.9724 13.9764 23.0008 13.8014 23 13.6252C22.9956 13.3312 22.9122 13.0438 22.7585 12.7938C22.6049 12.5438 22.3869 12.3406 22.1277 12.2057Z" fill="white"/>
</svg>
