<svg width="33" height="40" viewBox="0 0 33 40" fill="none" xmlns="http://www.w3.org/2000/svg">
<path d="M7.74809 28.211V34.553H8.33609V28.211H7.74809ZM8.19609 30.71V31.2H9.37209V30.71H8.19609ZM3.73709 32.488V32.978H4.23409C5.42409 32.978 6.25709 32.943 7.23009 32.761L7.16709 32.271C6.22209 32.446 5.40309 32.488 4.23409 32.488H3.73709ZM3.73709 28.827V32.705H4.31109V29.303H6.67709V28.827H3.73709ZM14.5025 28.211V34.553H15.0835V28.211H14.5025ZM11.7445 28.701C10.8135 28.701 10.1415 29.562 10.1415 30.906C10.1415 32.257 10.8135 33.118 11.7445 33.118C12.6825 33.118 13.3545 32.257 13.3545 30.906C13.3545 29.562 12.6825 28.701 11.7445 28.701ZM11.7445 29.226C12.3675 29.226 12.7945 29.884 12.7945 30.906C12.7945 31.935 12.3675 32.607 11.7445 32.607C11.1285 32.607 10.6945 31.935 10.6945 30.906C10.6945 29.884 11.1285 29.226 11.7445 29.226ZM18.037 28.701C17.113 28.701 16.462 29.562 16.462 30.906C16.462 32.257 17.113 33.118 18.037 33.118C18.954 33.118 19.612 32.257 19.612 30.906C19.612 29.562 18.954 28.701 18.037 28.701ZM18.037 29.226C18.646 29.226 19.059 29.884 19.059 30.906C19.059 31.935 18.646 32.607 18.037 32.607C17.428 32.607 17.015 31.935 17.015 30.906C17.015 29.884 17.428 29.226 18.037 29.226ZM20.984 28.211V34.553H21.558V28.211H20.984ZM19.423 30.626V31.102H21.236V30.626H19.423ZM27.3955 28.211V34.553H27.9765V28.211H27.3955ZM23.1535 32.544V33.027H23.6785C24.7635 33.027 25.7155 32.985 26.8635 32.796L26.8005 32.32C25.6805 32.502 24.7355 32.544 23.6785 32.544H23.1535ZM23.1395 28.806V29.282H25.4775V30.591H23.1535V32.726H23.7345V31.067H26.0655V28.806H23.1395Z" fill="#989898"/>
<path d="M23 6H9V24H23V6Z" fill="#989898"/>
<path d="M11.4045 18.7358H7" stroke="#989898" stroke-width="2" stroke-miterlimit="10"/>
<path d="M11.4045 11.8364H7" stroke="#989898" stroke-width="2" stroke-miterlimit="10"/>
<path d="M18.1277 13.2057C17.8724 13.0703 17.5881 12.9998 17.2996 13.0003C17.0538 13 16.8108 13.0528 16.587 13.1552C16.3632 13.2576 16.1637 13.4073 16.0022 13.594C15.7446 13.2981 15.3953 13.0987 15.011 13.0282C14.6268 12.9577 14.2301 13.0202 13.8856 13.2057C13.6216 13.3394 13.3993 13.5439 13.2431 13.7967C13.0868 14.0495 13.0027 14.3408 13 14.6386C13.0006 14.8103 13.029 14.9806 13.0841 15.143C13.372 16.4064 15.2229 18 15.9933 18C16.7638 18 18.628 16.4108 18.9158 15.143C18.9724 14.9764 19.0008 14.8014 19 14.6252C18.9956 14.3312 18.9122 14.0438 18.7585 13.7938C18.6049 13.5438 18.3869 13.3406 18.1277 13.2057Z" fill="white"/>
</svg>
