<svg width="27" height="27" viewBox="0 0 27 27" fill="none" xmlns="http://www.w3.org/2000/svg">
<g id="&#235;&#160;&#136;&#236;&#157;&#180;&#236;&#150;&#180; 2">
<g id="&#235;&#160;&#136;&#236;&#157;&#180;&#236;&#150;&#180; 1">
<path id="Vector" d="M13.75 25.5C20.2393 25.5 25.5 20.2393 25.5 13.75C25.5 7.26065 20.2393 2 13.75 2C7.26065 2 2 7.26065 2 13.75C2 20.2393 7.26065 25.5 13.75 25.5Z" fill="#F5C1C1" stroke="#FFA9A9" stroke-width="2.5"/>
<path id="Vector_2" d="M11.7651 9.53213C11.7651 9.53213 7.62928 9.42081 8.13759 10.532C8.6459 11.6431 21.8179 11.3721 19.102 10.3219C17.0814 9.52793 15.6846 9.51953 15.6846 9.51953" stroke="white" stroke-linecap="round" stroke-linejoin="round"/>
<path id="Vector_3" d="M12.1977 11.2527C12.1977 11.2527 8.94832 11.1393 9.35161 12.2504C9.7549 13.3616 20.0997 13.0906 17.9635 12.0404C16.3735 11.2422 15.277 11.2422 15.277 11.2422" stroke="white" stroke-linecap="round" stroke-linejoin="round"/>
<path id="Vector_4" d="M13.7815 8.52979V14.3565" stroke="white" stroke-linecap="round" stroke-linejoin="round"/>
<g id="Vector_5">
<path d="M13.1325 14.6865C13.1325 14.6865 13.7416 15.5813 11.4269 15.2158C9.11218 14.8504 8.49885 14.6466 8.13337 15.7031C7.76788 16.7597 10.4439 20.2339 12.8489 17.6734C12.7418 17.5936 12.5548 19.7507 13.8991 19.7528C15.1174 19.7528 14.7981 17.6524 14.7981 17.6524C17.1843 20.2086 19.7993 16.7597 19.4339 15.7031C19.0684 14.6466 18.4592 14.8483 16.1424 15.2158C13.8256 15.5834 14.4348 14.6865 14.4348 14.6865" fill="white"/>
<path d="M13.1325 14.6865C13.1325 14.6865 13.7416 15.5813 11.4269 15.2158C9.11218 14.8504 8.49885 14.6466 8.13337 15.7031C7.76788 16.7597 10.4439 20.2339 12.8489 17.6734C12.7418 17.5936 12.5548 19.7507 13.8991 19.7528C15.1174 19.7528 14.7981 17.6524 14.7981 17.6524C17.1843 20.2086 19.7993 16.7597 19.4339 15.7031C19.0684 14.6466 18.4592 14.8483 16.1424 15.2158C13.8256 15.5834 14.4348 14.6865 14.4348 14.6865" stroke="white" stroke-linecap="round" stroke-linejoin="round"/>
</g>
<path id="Vector_6" d="M9.76752 16.8391C10.0645 16.8391 10.3052 16.5984 10.3052 16.3014C10.3052 16.0044 10.0645 15.7637 9.76752 15.7637C9.47054 15.7637 9.2298 16.0044 9.2298 16.3014C9.2298 16.5984 9.47054 16.8391 9.76752 16.8391Z" fill="#F6BEC8"/>
<path id="Vector_7" d="M17.783 16.8391C18.0799 16.8391 18.3207 16.5984 18.3207 16.3014C18.3207 16.0044 18.0799 15.7637 17.783 15.7637C17.486 15.7637 17.2452 16.0044 17.2452 16.3014C17.2452 16.5984 17.486 16.8391 17.783 16.8391Z" fill="#F6BEC8"/>
<path id="Vector_8" d="M20.5744 20.3904H20.3875L20.5744 18.9747H19.9254C19.8182 18.9747 19.8182 18.9096 19.8539 18.8424C19.8896 18.7752 19.8539 18.8256 19.8665 18.8172L20.9441 16.7524H21.1289L20.9441 18.1724H21.5931C21.6834 18.1724 21.696 18.2396 21.6792 18.2753L21.6666 18.3068C20.9357 19.6931 20.5744 20.3904 20.5744 20.3904Z" fill="white"/>
</g>
</g>
</svg>
