<svg width="60" height="27" viewBox="0 0 60 27" fill="none" xmlns="http://www.w3.org/2000/svg">
<g clip-path="url(#clip0_1228_1336)">
<path d="M43.5149 3.92871H16.4851C11.2466 3.92871 7 8.01602 7 13.058V14.4423C7 19.4843 11.2466 23.5716 16.4851 23.5716H43.5149C48.7534 23.5716 53 19.4843 53 14.4423V13.058C53 8.01602 48.7534 3.92871 43.5149 3.92871Z" fill="#FFA9A9"/>
<path d="M15.8253 10.8569V15.7689H19.3693V10.8569H15.8253ZM18.3213 11.6889V14.9289H16.8733V11.6889H18.3213ZM20.3373 10.1609V17.5689H21.4093V10.1609H20.3373ZM21.1693 12.9529V13.8329H22.4813V12.9529H21.1693ZM28.0406 10.1529V17.5849H29.1126V10.1529H28.0406ZM25.1206 10.6729C24.0006 10.6729 23.1766 11.6969 23.1766 13.3129C23.1766 14.9449 24.0006 15.9689 25.1206 15.9689C26.2406 15.9689 27.0646 14.9449 27.0646 13.3129C27.0646 11.6969 26.2406 10.6729 25.1206 10.6729ZM25.1206 11.6409C25.6726 11.6409 26.0406 12.2249 26.0406 13.3129C26.0406 14.4169 25.6726 15.0089 25.1206 15.0089C24.5686 15.0089 24.1926 14.4169 24.1926 13.3129C24.1926 12.2249 24.5686 11.6409 25.1206 11.6409ZM30.528 10.9209V15.7209H33.456V10.9209H30.528ZM32.464 11.7529V14.8889H31.52V11.7529H32.464ZM35.672 10.1609V17.5689H36.688V10.1609H35.672ZM32.92 12.8489V13.7049H34.584V12.8489H32.92ZM34.16 10.2729V17.2329H35.16V10.2729H34.16ZM38.4874 12.4889V13.3369H43.6394V12.4889H38.4874ZM38.4874 10.4969V12.8729H39.5514V10.4969H38.4874ZM37.6874 14.1529V15.0089H44.3834V14.1529H37.6874ZM39.2074 14.4569V17.5689H40.2714V14.4569H39.2074ZM41.7914 14.4569V17.5689H42.8554V14.4569H41.7914Z" fill="white"/>
</g>
<defs>
<clipPath id="clip0_1228_1336">
<rect width="60" height="26.7857" fill="white"/>
</clipPath>
</defs>
</svg>
