<svg width="55" height="48" viewBox="0 0 55 48" fill="none" xmlns="http://www.w3.org/2000/svg">
<g clip-path="url(#clip0_1311_1844)">
<path d="M19.8067 12H32.1909C32.6701 12 33.1297 12.1906 33.4685 12.5298C33.8073 12.8689 33.9977 13.329 33.9977 13.8087V20.5408H18V13.8087C18 13.329 18.1903 12.8689 18.5292 12.5298C18.868 12.1906 19.3275 12 19.8067 12Z" fill="#FEAAAA"/>
<path d="M32.1909 29.9976H19.8067C19.3275 29.9976 18.868 29.807 18.5291 29.4678C18.1903 29.1286 17.9999 28.6685 17.9999 28.1888V21.4568H34V28.1818C34.0009 28.4201 33.9547 28.6562 33.8642 28.8766C33.7737 29.0971 33.6406 29.2974 33.4725 29.4662C33.3043 29.6349 33.1046 29.7687 32.8847 29.8599C32.6647 29.9511 32.4289 29.9979 32.1909 29.9976Z" fill="#FEAAAA"/>
<path d="M28.2866 15.9648H23.7909V17.0242H28.2866V15.9648Z" fill="white"/>
<path d="M28.2866 24.6606H23.7909V25.72H28.2866V24.6606Z" fill="white"/>
</g>
<path d="M5.31342 34.358C3.94142 34.358 3.08742 34.806 3.08742 35.555C3.08742 36.304 3.94142 36.745 5.31342 36.745C6.67842 36.745 7.53942 36.304 7.53942 35.555C7.53942 34.806 6.67842 34.358 5.31342 34.358ZM5.31342 34.82C6.31442 34.82 6.94442 35.086 6.94442 35.555C6.94442 36.017 6.31442 36.29 5.31342 36.29C4.30542 36.29 3.68242 36.017 3.68242 35.555C3.68242 35.086 4.30542 34.82 5.31342 34.82ZM3.15042 38.376V40.462H7.46942V38.376H3.15042ZM6.90242 38.845V39.993H3.72442V38.845H6.90242ZM2.45042 37.291V37.76H8.16942V37.291H2.45042ZM10.4859 34.575V35.226C10.4859 36.192 9.85588 37.039 8.88988 37.382L9.19088 37.858C10.2759 37.452 10.9689 36.451 10.9689 35.226V34.575H10.4859ZM10.5909 34.575V35.205C10.5909 36.353 11.2699 37.284 12.2919 37.669L12.6069 37.214C11.6829 36.892 11.0669 36.101 11.0669 35.205V34.575H10.5909ZM13.5169 34.218V37.963H14.0979V34.218H13.5169ZM12.0189 38.145C10.7099 38.145 9.90488 38.586 9.90488 39.342C9.90488 40.098 10.7099 40.532 12.0189 40.532C13.3209 40.532 14.1259 40.098 14.1259 39.342C14.1259 38.586 13.3209 38.145 12.0189 38.145ZM12.0189 38.607C12.9709 38.607 13.5519 38.88 13.5519 39.342C13.5519 39.804 12.9709 40.077 12.0189 40.077C11.0669 40.077 10.4859 39.804 10.4859 39.342C10.4859 38.88 11.0669 38.607 12.0189 38.607ZM12.1449 35.555V36.038H13.6429V35.555H12.1449ZM17.1073 34.449C16.1693 34.449 15.4763 35.023 15.4763 35.856C15.4763 36.682 16.1693 37.256 17.1073 37.256C18.0523 37.256 18.7453 36.682 18.7453 35.856C18.7453 35.023 18.0523 34.449 17.1073 34.449ZM17.1073 34.925C17.7233 34.925 18.1783 35.31 18.1783 35.856C18.1783 36.402 17.7233 36.78 17.1073 36.78C16.4983 36.78 16.0363 36.402 16.0363 35.856C16.0363 35.31 16.4983 34.925 17.1073 34.925ZM19.9353 34.218V37.459H20.5233V34.218H19.9353ZM16.4283 37.767V38.236H19.9493V38.873H16.4423V40.259H17.0093V39.307H20.5233V37.767H16.4283ZM16.4423 40V40.462H20.7333V40H16.4423ZM26.3818 34.218V40.546H26.9628V34.218H26.3818ZM24.5268 34.897V34.995C24.5268 36.675 23.6798 38.019 21.8528 38.901L22.1608 39.37C24.2748 38.334 25.1008 36.731 25.1008 34.897H24.5268ZM22.1398 34.897V35.373H24.7788V34.897H22.1398ZM29.9242 39.258V39.741H35.6572V39.258H29.9242ZM32.4862 37.746V39.398H33.0672V37.746H32.4862ZM30.5962 34.666V37.9H34.9712V34.666H34.3972V35.793H31.1702V34.666H30.5962ZM31.1702 36.262H34.3972V37.424H31.1702V36.262ZM36.6997 34.708V35.184H39.4997V34.708H36.6997ZM37.6517 36.122V37.704H38.2257V36.122H37.6517ZM39.2687 34.708V35.044C39.2687 35.45 39.2687 36.024 39.1077 36.857L39.6747 36.92C39.8427 36.087 39.8427 35.457 39.8427 35.044V34.708H39.2687ZM40.7037 34.218V38.985H41.2847V34.218H40.7037ZM41.0187 36.276V36.759H42.1877V36.276H41.0187ZM37.2877 39.93V40.406H41.4877V39.93H37.2877ZM37.2877 38.544V40.077H37.8617V38.544H37.2877ZM36.3777 37.977C37.4907 37.977 39.0027 37.949 40.3187 37.718L40.2767 37.298C38.9957 37.473 37.4417 37.501 36.3147 37.501L36.3777 37.977ZM47.1291 34.218V38.026H47.7101V34.218H47.1291ZM47.5491 35.898V36.381H48.6481V35.898H47.5491ZM43.7341 38.383V40.462H47.7101V38.383H43.7341ZM47.1431 38.852V39.993H44.3011V38.852H47.1431ZM42.8171 34.883V35.359H46.5551V34.883H42.8171ZM44.6861 35.667C43.7761 35.667 43.1671 36.115 43.1671 36.801C43.1671 37.487 43.7761 37.921 44.6861 37.921C45.5891 37.921 46.1981 37.487 46.1981 36.801C46.1981 36.115 45.5891 35.667 44.6861 35.667ZM44.6861 36.115C45.2531 36.115 45.6451 36.381 45.6451 36.801C45.6451 37.214 45.2531 37.48 44.6861 37.48C44.1051 37.48 43.7201 37.214 43.7201 36.801C43.7201 36.381 44.1051 36.115 44.6861 36.115ZM44.3921 34.162V35.128H44.9731V34.162H44.3921Z" fill="#FFA9A9"/>
<defs>
<clipPath id="clip0_1311_1844">
<rect width="16" height="18" fill="white" transform="translate(18 12)"/>
</clipPath>
</defs>
</svg>
