<svg width="42" height="48" viewBox="0 0 42 48" fill="none" xmlns="http://www.w3.org/2000/svg">
<path opacity="0.3" d="M11.7629 17.1905V26.3382C12.8152 25.9598 13.8952 25.7659 14.9937 25.7659C16.0922 25.7659 17.1722 25.9598 18.2245 26.3382V17.1998C17.1999 16.7659 16.1014 16.5352 14.9937 16.5352C13.8676 16.5352 12.7876 16.7567 11.7629 17.1905Z" fill="#FFA9A9"/>
<path d="M26.5321 11.4585L21.9167 16.0739V24.8431L26.5321 20.6893V11.4585Z" fill="#FFA9A9"/>
<path d="M29.7352 15.7971C29.3014 15.5756 28.8491 15.391 28.3783 15.2341V26.3387C27.326 25.9602 26.246 25.7664 25.1475 25.7664C23.3937 25.7664 21.6583 26.2648 20.0706 27.2248V16.0556C18.5752 15.1971 16.8491 14.6895 14.9937 14.6895C13.3414 14.6895 11.7814 15.0956 10.406 15.7971C10.1014 15.9448 9.91675 16.2679 9.91675 16.6095V27.7602C9.91675 28.2956 10.3506 28.6741 10.8398 28.6741C10.9875 28.6741 11.1352 28.6372 11.2829 28.5633C12.3998 27.9818 13.6552 27.6125 14.9937 27.6125C16.9044 27.6125 18.6675 28.3695 20.0706 29.4587C21.4737 28.3695 23.2368 27.6125 25.1475 27.6125C26.486 27.6125 27.7414 27.9818 28.8583 28.5725C29.006 28.6464 29.1537 28.6833 29.3014 28.6833C29.7814 28.6833 30.2244 28.3048 30.2244 27.7695V16.6095C30.2244 16.2679 30.0398 15.9448 29.7352 15.7971ZM18.2244 26.3387C17.1721 25.9602 16.0921 25.7664 14.9937 25.7664C13.8952 25.7664 12.8152 25.9602 11.7629 26.3387V17.191C12.7875 16.7571 13.8675 16.5356 14.9937 16.5356C16.1014 16.5356 17.1998 16.7664 18.2244 17.2002V26.3387Z" fill="#FFA9A9"/>
<path d="M4.14188 37.495V37.985H4.55488C5.56988 37.985 6.18588 37.964 6.92088 37.817L6.85788 37.334C6.15088 37.474 5.55588 37.495 4.55488 37.495H4.14188ZM4.14188 33.939V37.677H4.69488V34.415H6.63388V33.939H4.14188ZM4.52688 35.612V36.081H6.53588V35.612H4.52688ZM8.71288 33.218V39.546H9.27288V33.218H8.71288ZM7.71188 35.752V36.235H8.92288V35.752H7.71188ZM7.31988 33.351V39.231H7.87288V33.351H7.31988ZM14.6623 33.218V36.802H15.2433V33.218H14.6623ZM15.0823 34.765V35.241H16.1813V34.765H15.0823ZM10.6233 35.962V36.445H11.1133C12.4433 36.445 13.1923 36.403 14.0603 36.228L13.9973 35.752C13.1503 35.927 12.4153 35.962 11.1133 35.962H10.6233ZM10.6233 33.638V36.235H11.1973V34.114H13.4093V33.638H10.6233ZM11.2673 37.138V39.462H15.2433V37.138H11.2673ZM14.6763 37.607V38.986H11.8343V37.607H14.6763ZM22.7618 33.211V39.546H23.3498V33.211H22.7618ZM23.1888 35.78V36.263H24.3578V35.78H23.1888ZM21.1448 33.897V33.988C21.1448 35.661 20.2698 37.012 18.5198 37.901L18.8418 38.349C20.8858 37.32 21.7118 35.696 21.7118 33.897H21.1448ZM18.8138 33.897V34.373H21.4458V33.897H18.8138ZM29.5162 33.211V39.553H30.0972V33.211H29.5162ZM26.7582 33.701C25.8272 33.701 25.1552 34.562 25.1552 35.906C25.1552 37.257 25.8272 38.118 26.7582 38.118C27.6962 38.118 28.3682 37.257 28.3682 35.906C28.3682 34.562 27.6962 33.701 26.7582 33.701ZM26.7582 34.226C27.3812 34.226 27.8082 34.884 27.8082 35.906C27.8082 36.935 27.3812 37.607 26.7582 37.607C26.1422 37.607 25.7082 36.935 25.7082 35.906C25.7082 34.884 26.1422 34.226 26.7582 34.226ZM32.0847 36.249V36.725H36.4317V36.249H32.0847ZM31.3637 38.209V38.692H37.0967V38.209H31.3637ZM32.0847 33.799V36.459H32.6657V34.282H36.3687V33.799H32.0847Z" fill="#FFA9A9"/>
</svg>
