<svg width="42" height="45" viewBox="0 0 42 45" fill="none" xmlns="http://www.w3.org/2000/svg">
<path opacity="0.3" d="M12.7629 12.1905V21.3382C13.8152 20.9598 14.8952 20.7659 15.9937 20.7659C17.0922 20.7659 18.1722 20.9598 19.2245 21.3382V12.1998C18.1999 11.7659 17.1014 11.5352 15.9937 11.5352C14.8676 11.5352 13.7876 11.7567 12.7629 12.1905Z" fill="#EDEDED"/>
<path d="M27.5321 6.4585L22.9167 11.0739V19.8431L27.5321 15.6893V6.4585Z" fill="#989898"/>
<path d="M30.7352 10.7971C30.3014 10.5756 29.8491 10.391 29.3783 10.2341V21.3387C28.326 20.9602 27.246 20.7664 26.1475 20.7664C24.3937 20.7664 22.6583 21.2648 21.0706 22.2248V11.0556C19.5752 10.1971 17.8491 9.68945 15.9937 9.68945C14.3414 9.68945 12.7814 10.0956 11.406 10.7971C11.1014 10.9448 10.9167 11.2679 10.9167 11.6095V22.7602C10.9167 23.2956 11.3506 23.6741 11.8398 23.6741C11.9875 23.6741 12.1352 23.6372 12.2829 23.5633C13.3998 22.9818 14.6552 22.6125 15.9937 22.6125C17.9044 22.6125 19.6675 23.3695 21.0706 24.4587C22.4737 23.3695 24.2368 22.6125 26.1475 22.6125C27.486 22.6125 28.7414 22.9818 29.8583 23.5725C30.006 23.6464 30.1537 23.6833 30.3014 23.6833C30.7814 23.6833 31.2244 23.3048 31.2244 22.7695V11.6095C31.2244 11.2679 31.0398 10.9448 30.7352 10.7971ZM19.2244 21.3387C18.1721 20.9602 17.0921 20.7664 15.9937 20.7664C14.8952 20.7664 13.8152 20.9602 12.7629 21.3387V12.191C13.7875 11.7571 14.8675 11.5356 15.9937 11.5356C17.1014 11.5356 18.1998 11.7664 19.2244 12.2002V21.3387Z" fill="#989898"/>
<path d="M5.14188 32.495V32.985H5.55488C6.56988 32.985 7.18588 32.964 7.92088 32.817L7.85788 32.334C7.15088 32.474 6.55588 32.495 5.55488 32.495H5.14188ZM5.14188 28.939V32.677H5.69488V29.415H7.63388V28.939H5.14188ZM5.52688 30.612V31.081H7.53588V30.612H5.52688ZM9.71288 28.218V34.546H10.2729V28.218H9.71288ZM8.71188 30.752V31.235H9.92288V30.752H8.71188ZM8.31988 28.351V34.231H8.87288V28.351H8.31988ZM15.6623 28.218V31.802H16.2433V28.218H15.6623ZM16.0823 29.765V30.241H17.1813V29.765H16.0823ZM11.6233 30.962V31.445H12.1133C13.4433 31.445 14.1923 31.403 15.0603 31.228L14.9973 30.752C14.1503 30.927 13.4153 30.962 12.1133 30.962H11.6233ZM11.6233 28.638V31.235H12.1973V29.114H14.4093V28.638H11.6233ZM12.2673 32.138V34.462H16.2433V32.138H12.2673ZM15.6763 32.607V33.986H12.8343V32.607H15.6763ZM23.7618 28.211V34.546H24.3498V28.211H23.7618ZM24.1888 30.78V31.263H25.3578V30.78H24.1888ZM22.1448 28.897V28.988C22.1448 30.661 21.2698 32.012 19.5198 32.901L19.8418 33.349C21.8858 32.32 22.7118 30.696 22.7118 28.897H22.1448ZM19.8138 28.897V29.373H22.4458V28.897H19.8138ZM30.5162 28.211V34.553H31.0972V28.211H30.5162ZM27.7582 28.701C26.8272 28.701 26.1552 29.562 26.1552 30.906C26.1552 32.257 26.8272 33.118 27.7582 33.118C28.6962 33.118 29.3682 32.257 29.3682 30.906C29.3682 29.562 28.6962 28.701 27.7582 28.701ZM27.7582 29.226C28.3812 29.226 28.8082 29.884 28.8082 30.906C28.8082 31.935 28.3812 32.607 27.7582 32.607C27.1422 32.607 26.7082 31.935 26.7082 30.906C26.7082 29.884 27.1422 29.226 27.7582 29.226ZM33.0847 31.249V31.725H37.4317V31.249H33.0847ZM32.3637 33.209V33.692H38.0967V33.209H32.3637ZM33.0847 28.799V31.459H33.6657V29.282H37.3687V28.799H33.0847Z" fill="#989898"/>
</svg>
