<svg width="33" height="48" viewBox="0 0 33 48" fill="none" xmlns="http://www.w3.org/2000/svg">
<g clip-path="url(#clip0_1311_1840)">
<g clip-path="url(#clip1_1311_1840)">
<path d="M16.2316 10.7207L8.6333 17.4572V28.7207H14.1505L14.121 22.8465H17.9201V28.7207H23.6526V17.2821L16.2316 10.7207Z" fill="#FFA9A9"/>
</g>
<path d="M13.8233 36.656V38.462H18.1423V36.656H13.8233ZM17.5753 37.104V38.021H14.3973V37.104H17.5753ZM13.4243 32.736V33.191H18.5133V32.736H13.4243ZM15.9863 33.443C14.6773 33.443 13.9423 33.751 13.9423 34.339C13.9423 34.927 14.6773 35.235 15.9863 35.235C17.2883 35.235 18.0303 34.927 18.0303 34.339C18.0303 33.751 17.2883 33.443 15.9863 33.443ZM15.9863 33.849C16.8963 33.849 17.4073 34.024 17.4073 34.339C17.4073 34.654 16.8963 34.829 15.9863 34.829C15.0693 34.829 14.5583 34.654 14.5583 34.339C14.5583 34.024 15.0693 33.849 15.9863 33.849ZM15.6993 32.127V33.03H16.2733V32.127H15.6993ZM13.1233 35.718V36.173H18.8423V35.718H13.1233ZM15.6993 35.095V35.97H16.2733V35.095H15.6993Z" fill="#FFA9A9"/>
</g>
<defs>
<clipPath id="clip0_1311_1840">
<rect width="33" height="48" fill="white"/>
</clipPath>
<clipPath id="clip1_1311_1840">
<rect width="16.2857" height="18" fill="white" transform="translate(7 11)"/>
</clipPath>
</defs>
</svg>
