<svg width="30" height="40" viewBox="0 0 30 40" fill="none" xmlns="http://www.w3.org/2000/svg">
<g clip-path="url(#clip0_1234_1505)">
<g clip-path="url(#clip1_1234_1505)">
<path d="M15.2316 6.7207L7.6333 13.4572V24.7207H13.1505L13.121 18.8465H16.9201V24.7207H22.6526V13.2821L15.2316 6.7207Z" fill="#989898"/>
</g>
<path d="M12.8233 32.656V34.462H17.1423V32.656H12.8233ZM16.5753 33.104V34.021H13.3973V33.104H16.5753ZM12.4243 28.736V29.191H17.5133V28.736H12.4243ZM14.9863 29.443C13.6773 29.443 12.9423 29.751 12.9423 30.339C12.9423 30.927 13.6773 31.235 14.9863 31.235C16.2883 31.235 17.0303 30.927 17.0303 30.339C17.0303 29.751 16.2883 29.443 14.9863 29.443ZM14.9863 29.849C15.8963 29.849 16.4073 30.024 16.4073 30.339C16.4073 30.654 15.8963 30.829 14.9863 30.829C14.0693 30.829 13.5583 30.654 13.5583 30.339C13.5583 30.024 14.0693 29.849 14.9863 29.849ZM14.6993 28.127V29.03H15.2733V28.127H14.6993ZM12.1233 31.718V32.173H17.8423V31.718H12.1233ZM14.6993 31.095V31.97H15.2733V31.095H14.6993Z" fill="#989898"/>
</g>
<defs>
<clipPath id="clip0_1234_1505">
<rect width="30" height="40" fill="white"/>
</clipPath>
<clipPath id="clip1_1234_1505">
<rect width="16.2857" height="18" fill="white" transform="translate(6 7)"/>
</clipPath>
</defs>
</svg>
